<svg height="1300pt" preserveAspectRatio="xMidYMid meet" viewBox="0 0 1300 1300" width="1300pt" xmlns="http://www.w3.org/2000/svg"><g transform="matrix(.1 0 0 -.1 0 1300)"><path d="m11822 12631c2-9-13-43-30-69-11-16-18-20-27-12-9 7-16 5-26-7-9-11-10-14-1-9 7 4 12 1 12-9 0-9-4-14-8-11-5 3-16-9-26-25-13-23-21-27-31-19-9 7-16 6-26-7-9-11-10-14-1-9 6 4 12 2 12-3 0-6-6-11-14-11s-18-5-22-12c-5-7-3-8 6-3 9 6 11 4 5-4-4-7-17-10-29-7-20 5-20 5-2-9 18-13 18-15 3-16-38-3-42-5-39-23 3-14-1-17-13-12-11 4-14 2-9-6s2-9-9-5c-10 4-16 2-14-6 1-7-4-11-11-9-8 1-11-2-7-8 5-8 11-7 21 1 8 6 14 7 14 2s-11-16-25-23c-13-7-21-18-18-24 4-7 1-6-8 1-10 8-19 9-29 1-12-8-12-9 3-4 21 7 23-12 2-20-8-4-13-10-10-14 3-5 1-11-4-14-5-4-13-1-17 5-5 8-3 9 6 4 9-6 11-4 6 4-6 9-13 8-27-5-20-18-25-29-9-19 19 12 10-8-15-31-14-13-25-26-25-29 0-8-11-8-18 1-4 4-1 4 7-1 10-6 12-4 7 4-11 17-37-6-29-25 3-9-2-14-16-14-12 0-21-4-21-9s-7-12-16-15c-15-6-15-4-3 11 12 16 12 17-2 6-9-7-18-11-21-8-2 3-4-5-4-18 1-16-4-21-16-19s-18-4-18-16c0-25-10-34-26-21-8 7-14 6-20-2-5-8-3-9 7-4 12 7 12 6 1-7-8-9-19-15-26-12s-28-8-47-23-28-20-20-10c12 15 12 17-2 12-8-4-18-17-21-31-4-13-12-24-18-24-9 0-9 3 0 12 7 7 12 17 12 23 0 5-14-10-30-35s-30-40-30-34c0 5 3 14 8 20 4 5 0 1-10-8-9-10-27-18-40-18-18 0-20-2-8-10 11-7 7-10-19-10-29 0-32-2-21-15 11-14 10-14-13-6-18 7-28 7-33-1-4-7-3-8 4-4 8 5 10 2 6-9-5-12-9-13-20-4-10 8-14 8-14 0 0-6-7-11-15-11-14 0-20-12-16-33 1-5-3-6-9-2-6 3-8 12-4 18 3 7-4 1-15-13s-21-19-21-12c0 6-5 12-11 12-5 0-8-3-6-7 3-5-5-17-16-28s-17-14-13-7c4 6 2 12-3 12-6 0-11-5-11-11s-7-8-16-5c-8 3-12 2-9-4s1-10-5-10-8-4-5-10-1-7-10-3c-12 4-13 8-5 13s9 10 2 14c-6 3-14-3-17-15-4-12-12-18-21-15s-14-1-15-12c0-11-2-12-6-4-4 10-8 10-19 1-7-6-21-9-29-5-12 4-13 2-6-13 9-15 7-17-13-14-13 3-27-1-31-8-5-8-4-10 3-5 7 4 12 2 12-3 0-14-13-14-27 0-8 8-13 7-18-2-6-8-4-10 5-4 8 5 11 4 6-3-4-6-13-9-21-5-9 3-15-1-15-8 0-11-3-11-10 1-7 11-10 11-10 2 0-7-6-12-14-10s-21-6-29-16c-11-15-16-16-22-6-6 9-4 11 5 5s11-4 5 5c-6 10-10 10-19-2-6-8-16-13-23-11-6 2-15-1-19-8-4-8-3-9 4-5 18 11 14 0-5-15-10-8-14-9-10-2 4 6 3 14-2 17s-11-3-14-14-10-20-17-20c-6 0-8 5-4 12 5 7 3 8-5 4-7-5-10-15-6-23 4-13 3-14-9-4-9 7-17 8-20 2-3-5-16-7-28-3-14 3-19 1-14-6 3-6 2-13-4-17-5-3-10 1-10 10 0 13-2 14-14 3-8-7-11-17-8-23 2-5-1-5-8 2-11 10-16 9-27-5-8-9-11-11-7-3 6 11 3 13-12 7-10-5-35-10-54-12-57-6-60-7-60-13 0-4-9-12-21-19-12-8-18-9-14-3 3 6 2 11-4 11-5 0-12-4-16-10-3-5-12-7-20-3-8 3-15 0-15-7 0-9-4-9-17 1-11 9-14 10-9 2 4-7 2-21-4-30-11-16-11-16-6-1 3 10 0 20-6 24-7 4-8 3-4-4s2-12-4-12-9-4-6-9-8-7-24-6c-18 2-31-3-35-12-4-13-8-13-22-2-11 9-14 10-9 2 5-9-1-12-23-9-19 2-28-1-24-7s-2-8-15-5c-12 4-20 2-17-3 3-4-10-7-29-5-19 1-33-1-30-6 5-9-2-10-53-13-20 0-40-10-53-25-11-12-20-19-20-14 0 6 6 16 13 24 6 7-2 3-20-9-22-15-42-20-67-18-22 3-40-1-47-9-6-7-24-12-41-10-20 2-28 0-24-9 5-15-25-15-36 0-5 6-8 6-8-1 0-6-16-11-36-12s-41-5-48-10c-6-5-21-8-34-7s-25-3-29-8c-3-5-10-3-15 4-7 10-11 11-14 2-3-7-12-9-20-6s-14-1-14-8c0-11-3-11-10 1-7 11-10 11-10 2 0-7-4-10-10-7-5 3-10 1-10-6 0-8-4-8-15 1-12 10-15 10-15 0 0-7-6-10-13-7-15 5-59-27-50-37 4-3 1-6-5-6-7 0-12 4-12 8s-9 8-20 8-20-5-20-11c0-5-5-3-10 5s-10 10-10 3c0-6-9-9-20-6s-20 1-20-4-18-9-40-8-40-1-40-4c0-4-18-5-40-5-22 1-43-2-46-7-8-14-26-11-19 4 4 6 1 5-7-3-8-10-26-15-45-13-18 1-35-2-38-7-3-6-11-10-16-10-6 0-7 5-3 11 3 6-5 3-20-6-15-10-26-13-26-6s-8 8-22 3c-13-5-34-7-48-6s-32-2-40-8c-11-6-8-7 10-3 23 5 23 5 8-8-10-8-14-18-10-23 4-4-2-2-12 6-11 9-21 11-23 5-1-6-34-10-74-9-44 1-72-3-75-10s-26-10-59-9c-30 2-55-1-55-6s-9-11-21-14c-17-4-18-3-8 9s9 13-5 8c-9-3-16-10-16-14s-16-5-36-3-43-2-52-9-13-8-9-2c3 6 0 11-8 11s-12-4-10-8c8-12-33-17-44-6-8 8-11 8-11 0 0-7-18-10-46-8-31 2-56-2-73-13-25-16-25-16-12 1 12 15 12 17-3 11-9-3-16-9-16-13 0-3-20-6-45-5s-45-3-45-9c0-5-7-4-15 3-12 10-16 9-20-2s-17-14-45-11c-24 2-40 0-40-7 0-5-5-10-11-10-5 0-8 4-5 9 4 5-3 7-14 4s-20-9-20-13-18-6-40-4-40 0-40-6c0-5-7-6-17-3-9 4-14 2-10-3 3-6-25-9-71-8-42 0-81-2-87-6-5-4-17-8-25-9-45-3-66-7-79-15-10-6-12-5-7 2 5 8-1 11-18 10-15-1-26-6-26-11s-9-7-20-4-20 2-20-2-25-7-55-6c-38 2-52-1-48-9 4-6-1-5-11 3-14 12-19 12-26 2-6-11-9-11-13 0-4 10-6 10-6 2-1-7-10-13-22-13-11 0-17-4-14-10 6-10-15-15-44-10-8 1-18-4-22-12-5-7-9-8-9-2s-12 10-27 8c-16-1-28-3-28-4 0-3-57-12-90-14-16 0-34-7-38-14-6-9-13-9-29-1-11 6-18 7-14 1 3-6-28-9-84-8-50 1-90-2-90-6s-7-4-17-1c-12 5-14 3-8-8 7-11 5-11-10 1-10 8-16 10-12 4 4-7 0-14-8-18-8-3-17 0-21 6-4 7-9 6-15-3-5-8-9-9-9-3s-14 10-30 10c-21 0-29-4-26-12s-1-11-10-7c-8 3-21 0-28-6-10-8-16-9-21-1-3 5-11 10-16 10-6 0-7-5-3-12 4-6 3-8-3-5-20 12-64 16-57 5 5-7 0-9-14-6-12 4-25 2-28-3s-16-7-29-5c-14 3-27 0-30-5-4-5-14-5-25 1-13 7-21 7-25 0-4-6-11-8-16-5-5 4-9 2-9-3s-11-8-25-7c-14 2-25-1-25-6 0-6-5-7-12-3-6 4-24 8-40 9-22 2-28-1-24-12 4-8 1-11-5-8-6 4-16-1-23-11-8-10-20-15-29-11-9 3-19 2-22-3-4-6-13-7-23-1-11 6-24 6-35 0-11-7-17-7-17 0s-8 7-25 1c-18-7-25-6-25 3 0 8-4 7-10-3-7-11-10-12-10-2 0 8-6 12-12 9-7-2-12-9-11-14s-4-10-12-10-12 3-10 7-2 7-10 7-14-3-13-6c2-19-4-22-17-11-9 8-15 9-15 2 0-6-9-9-20-7s-20-1-20-7-7-5-17 3c-9 8-14 9-10 3 4-7 0-14-8-18-8-3-15-1-15 5s-6 7-12 2c-17-10-38-13-38-5 0 13-72 5-81-9-7-12-9-12-9 1 0 12-2 13-9 1-5-7-14-10-20-7-6 4-11 3-11-3 0-10-19-9-37 2-8 5-13 3-13-3s-8-10-18-9c-30 3-35-1-23-15 10-11 9-14-1-12-7 1-19 5-25 9-9 6-11 3-6-9 5-14 3-15-15-5-15 8-22 8-22 1 0-8-6-8-20 0-16 9-22 8-26-5-5-13-9-13-22-3-10 8-13 8-9 2 4-7 0-15-9-18-22-9-26-8-18 5 4 7-1 7-16-1s-25-9-32-2c-12 12-41 4-33-8 3-5 1-11-4-14-5-4-13-1-17 5-5 8-3 9 6 4s11-4 6 4-13 7-28-4c-16-11-25-12-35-3-7 6-13 6-13 1s-15-8-32-7c-18 1-39-2-46-8-10-8-11-6-6 8 6 16 2 15-21-6-24-21-27-22-21-6 7 19 6 19-13 2-11-10-25-15-30-11-6 3-11 1-11-6s-3-9-7-6c-3 4-12 2-19-4s-19-7-26-3c-17 11-58 11-51 0 3-5 0-6-8-4-8 3-20-2-27-11-12-14-13-14-8 3 6 16 4 17-9 6-8-7-13-16-10-20 3-5-5-6-17-2-12 3-19 1-15-4 3-6-3-11-14-11-10-1-19 4-19 10 0 8-2 9-8 1-4-6-14-12-22-12-49-4-66-8-72-16-4-6-16-5-32 2-20 9-25 9-23-1 1-7-6-11-17-9s-15-1-11-8c8-13-17-9-27 5-4 5-10 2-14-8-5-15-9-15-22-5-10 8-13 8-9 2 4-7 0-15-9-18-10-4-13-2-8 7 6 9 4 9-7 1-8-6-33-10-55-9-33 1-41-2-36-14 4-10 1-13-11-8-10 4-16 2-14-6 1-8-10-12-30-11-24 1-33-4-33-15-1-13-2-13-11 2-10 17-12 17-36 2-33-22-77-30-68-13 4 7 0 5-8-5-8-9-25-17-38-16-39 2-73-10-87-28-7-10-12-12-12-4 0 7-5 9-10 6-6-4-8-10-5-15s0-12-6-16c-8-4-9-3-5 4s2 12-3 12c-6 0-11-4-11-8 0-8-6-10-47-13-10-1-27-8-37-15-14-10-24-10-40-2-18 10-19 9-8-4 10-13 8-15-15-16-47 0-54-2-49-10 3-5-1-9-9-9s-12 4-9 9c3 4-2 5-10 2-9-3-16-11-16-17s-3-7-7-4c-3 4-13 1-21-6-13-9-14-9-8 1 4 6 2 12-3 12-6 0-11-5-11-11 0-7-10-9-25-7-13 3-22 2-20-3 3-4 1-10-5-14-5-3-10 0-10 7s-10 2-21-12-17-18-13-10c6 12 5 13-8 3-8-7-19-9-24-5-4 4-2-2 6-12 10-13 10-17 2-12-7 4-19 0-28-8-17-18-39-22-29-6 4 6-10 1-30-10s-34-17-31-12c2 4-4 8-14 8-13 0-16-4-9-12 6-8 2-10-16-9-14 2-25 0-25-5 0-4-10-6-22-3-19 4-20 3-8-6 15-11 13-13-19-15-11 0-23-5-28-10s-3-6 5-2c6 4 12 2 12-3 0-6-11-11-24-11s-27-6-29-12c-4-10-6-10-6 0-1 6-6 12-13 12-6 0-8-3-5-7 11-11-36-38-62-34-16 2-21-1-16-10 6-9 1-11-18-7-15 3-24 2-22-3 3-4 0-11-6-15-6-3-15 0-20 7-7 11-9 9-9-7 0-13-15-30-40-47-23-14-38-22-35-18 2 5-2 11-10 14-10 4-12 1-8-10s3-14-6-9c-6 4-18 2-26-4-8-7-22-10-30-6-11 4-14 2-9-6s2-9-9-5c-13 5-17 1-17-15 0-17-2-18-15-8-13 11-14 10-10-3 4-8 1-18-6-23-8-5-10-3-5 7 4 8 1 6-7-4-11-14-16-15-20-5-3 8-6 5-6-7-1-17-3-17-11-5-8 13-10 12-10-4 0-14-5-17-22-13-23 6-23 6-3-10 20-15 20-15-2-8-14 4-23 2-23-5 0-6-5-8-10-5-6 3-10 1-10-6 0-9-3-9-14 0s-14 8-12-5c0-9-5-19-13-22s-11 0-7 7c4 6 2 11-3 11-6 0-11-7-11-16 0-11-6-15-20-11-12 3-18 1-14-5s1-9-6-6c-14 4-56-30-47-38 2-2 10 2 17 11 7 8 17 15 22 15 6 0 0-9-13-19-18-14-27-16-37-9-9 8-11 7-6-5 9-25-5-40-24-25-13 11-15 10-9-4 4-13 2-15-10-11-11 5-14 3-8-6 6-10 3-11-15-1-19 10-21 10-12-7 9-16 7-19-16-18-20 0-26-4-24-17 3-16-14-24-41-19-5 1-5-4-1-10 5-9 2-10-11-5-16 6-16 4-4-10 13-16 12-16-8-6-19 11-21 9-16-11 3-13 1-17-4-10-6 8-14 8-33-4-14-8-17-12-7-9 11 3 15 2 12-4s-14-10-23-10-24-5-32-11c-13-9-12-10 2-5 10 3 20 1 23-4 4-6-3-10-14-10-13 0-21-7-21-17 0-15-2-16-10-3-8 12-10 10-10-9 0-13-3-21-7-18-3 4-12-1-20-11-9-10-11-11-7-2 7 13 5 13-9 1-9-7-17-10-17-6s-7 2-15-5-12-16-9-21-2-17-12-26c-16-16-16-16-9 7 4 14 6 23 4 20s-13-16-24-29c-11-14-15-21-8-18 6 4 15 2 19-4 4-8 3-9-4-5s-12 2-12-5c0-8-4-8-15 1-13 11-14 10-9-5 6-14 4-16-7-10-12 8-12 6 0-9 8-9 10-16 5-15-23 4-35-2-28-13 6-10 5-10-8 0-12 10-18 10-27-2-9-11-9-16 0-21 7-5 3-15-15-30-14-12-22-26-18-30 4-5 1-5-7 0-11 7-9 13 13 32 15 12 23 23 18 23-14 0-52-45-52-62 0-21-26-42-41-32-8 4-9 3-5-4 8-13-32-62-50-62-7 0-16-9-19-20-4-11-11-18-16-15-5 4-9-1-9-10 0-12-5-15-16-11-12 4-15 2-10-9 4-10-1-15-16-15-17 0-18-2-8-15 11-13 10-14-5-9-14 6-16 4-10-7 8-12 6-12-8 0-10 8-20 11-24 7-3-3-2-6 4-6s13-6 16-14c4-9-2-12-19-10-13 1-22-2-18-7 3-5 11-6 17-2 7 4 6 0-2-10-7-9-17-15-21-12-9 5-24-24-21-41 1-7-8-14-19-17s-19-11-18-19c2-7-3-12-11-10-12 3-12 1 0-14s12-17 0-9c-11 6-13 4-7-10 5-15 4-16-9-5-12 10-15 10-15-4 0-10-4-14-10-11-5 3-10 1-10-5s-5-8-12-4-8 3-4-4c4-6 14-8 24-5 13 4 13 2-3-10-11-8-24-13-29-10-5 4-6 1-1-6 4-7-2-22-16-37-12-13-18-24-14-24 5 0 0-7-12-15-13-9-20-22-17-30 5-13-5-19-27-17-3 1-6-6-6-13 0-12 3-12 16-2 8 6 2-5-13-25-16-21-33-38-39-38s-7-3-4-6c4-4 13-1 22 6 28 23 15 1-17-30-28-25-31-32-18-40 12-8 10-10-10-10-18 0-21-3-11-9 9-6 10-11 2-15-6-4-8-12-5-18 5-7 2-9-8-6-17 7-21-23-4-35 6-4-1-5-17-3-17 3-25 1-21-5 3-6-1-18-9-27s-13-25-12-34c2-9-6-26-16-37-11-12-15-21-8-21 8 0 9-4 0-13-6-8-7-18-3-22 4-5 0-6-8-3-11 4-15-3-16-25-1-17-6-33-13-35-6-2-11-8-11-13 0-6 5-7 12-3 6 4 4-3-5-15-8-13-13-30-10-37 6-17-13-19-21-1-3 6-3-1-1-16 3-22-1-30-21-37-13-5-24-12-24-14 0-3 7-3 15 0 11 4 13 2 9-9-3-9-12-18-20-21-11-4-12-10-5-23 7-12 5-21-7-31-10-7-11-11-4-7 6 3 12 1 12-4 0-6-5-11-11-11s-9-6-6-13-1-24-9-38c-17-30-18-42-2-33 7 5 8 3 4-5-5-7-14-10-22-7-12 5-12 2-3-15 8-16 8-20-1-14-7 4-10 1-8-11 2-11-2-18-10-16-10 2-10-2-3-17 8-15 7-20-6-26-12-4-14-8-6-13 9-6 9-14-2-36-8-15-13-40-11-56s0-27-4-25c-4 3-11-2-14-11-3-8-2-12 3-9s12 1 16-5c3-5 0-10-8-10-10 0-14-9-13-30 1-16-2-31-6-32-5-2-10-17-12-33-2-17-5-32-6-35s-1-18 0-34c1-18-2-26-9-22-6 4-11 3-11-3 0-5 8-12 17-14 17-4 17-5 0-6-10 0-15-5-12-11 3-5 0-10-7-10-8 0-9-3-3-8 14-10 13-64-1-79-6-6-10-23-9-37 2-14 0-26-4-26s-7-9-7-20 4-20 8-20c5 0 4-9-2-20-6-12-7-20-1-20 10 0 10-19-1-35-4-6-3-17 2-25 4-7 4-24-1-37-5-15-5-23 2-23 6 0 6-7-1-20-6-12-7-20-1-20 10 0 10-19-1-35-4-6-3-17 2-25 4-7 4-24-1-37-6-16-5-23 4-23 8 0 7-4-3-10-8-5-10-10-5-10 6 0 11-9 11-20s-4-20-7-20c-4 0-4-12 0-28 5-15 4-37 0-50-5-12-5-22-1-22 9 0 8-47-1-57-4-3-2-12 4-20 9-10 8-13-2-13-9 0-10-3-4-8 13-9 16-42 4-42-5 0-4-11 1-25 7-18 6-25-3-25-8 0-7-4 3-10 8-5 11-10 6-10s-1-9 8-19c12-13 14-21 6-26s-8-11-1-19c7-9 7-16-1-24-9-9-9-12 1-12 11 0 11-3 1-15-9-11-9-15-1-15 7 0 9-4 6-10s-1-10 4-10c13 0 10-22-4-32-6-4-1-8 9-8 11 0 16-3 13-6-3-4-1-16 5-28 10-19 10-20-5-7-15 12-15 11-3-15 21-44 29-87 15-79-8 5-8 2-1-11 5-11 8-29 7-41-1-20-1-21 21-5 12 10 19 22 16 27-3 6 1 4 10-3 13-10 18-10 24-1 4 8 3 9-4 5s-12-2-12 3c0 6 7 11 15 11 14 0 20 13 16 34-1 5 4 4 13-3 11-9 16-9 22 0 5 8 3 9-6 4-10-6-12-4-7 9 4 10 7 21 7 24 0 4 5 0 10-8 9-13 13-12 28 7 11 15 24 21 40 18 19-3 21-1 12 15-8 15-7 17 11 13 13-4 19-1 17 8-2 8 3 13 10 11 7-1 21 2 32 8 13 7 20 6 23-3 4-7 6-6 6 5 1 12 7 15 23 10 16-4 20-2 16 10-7 16 17 18 41 3 10-6 12-4 6 5-6 10-4 12 8 7 9-3 18 0 21 9 4 9 11 12 18 7 7-4 19-8 26-9 11-2 11 0 0 13-11 14-11 15 7 6 21-11 48-7 41 6-3 4 1 8 9 8s12-4 9-9c-3-4 0-8 5-8 6 0 11 5 11 11 0 5 5 7 10 4 6-3 10 0 10 7 0 8 3 9 8 3 10-14 32-17 32-4 0 5 5 7 10 4 6-3 10-2 10 3s18 8 40 7 40 1 40 5 7 7 15 7 12-4 9-9c-3-4 1-8 9-8s17 7 21 15c3 8 12 12 21 9 8-3 12-11 9-18-3-6 1-3 9 6 8 10 23 16 36 13 12-2 19 0 16 6-4 5 8 9 25 9 20 0 29 4 24 11-5 8-1 8 14 0 26-14 35-14 27-1-4 6 2 7 17 2 27-10 39-9 56 1 6 5 12 4 12 0 0-5 9-9 20-10 12-1 18 3 14 9s3 5 16-2c18-9 21-9 15 0-6 10-1 12 19 8 14-3 26-1 26 4s12 8 27 6c16-2 33 3 40 12 9 12 14 12 24 3 9-9 17-8 35 4 14 9 24 11 24 5s9-10 20-9 20 5 20 9 6 5 12 3c30-10 68-13 68-5 0 5 6 7 13 4 27-10 97-9 97 1 0 7 3 7 8 0 10-14 67-12 67 2 0 6 4 15 9 20s6 3 2-5c-6-9-1-12 16-10 12 2 29 7 36 11 7 5 12 3 12-4 0-9 3-10 11-2 6 6 23 8 45 3 19-5 32-4 28 1-3 5-1 9 5 9 5 0 13-5 17-11 5-8 10-6 16 5 5 9 14 14 19 10 5-3 16 0 24 6 11 9 15 9 15 1 0-9 5-9 20-1 14 8 20 8 20 0s6-8 20 0 20 8 20 0 6-8 20 0 20 8 20 0 6-8 20 0 20 8 20 0 6-8 20 0 20 8 20 0 6-8 20 0c11 6 20 7 20 3 0-10 41-10 58 1 7 4 12 2 12-4s5-8 11-5c16 10 59 13 59 5 0-10 20-8 38 3 7 5 12 3 12-3s5-8 11-5c16 10 59 13 59 5 0-10 20-8 38 3 7 5 12 3 12-3 0-7 7-7 22 1 16 9 23 9 26 1 3-9 9-9 23-2 13 8 19 7 19 0 0-8 6-8 20 0s20 8 20 0 6-8 20 0c12 6 20 7 20 1s11-6 30-1c17 5 30 5 30 0 0-10 19-8 38 3 7 5 12 3 12-3s5-8 11-5c17 11 59 13 59 3 0-5 9-4 20 2 12 6 20 7 20 1 0-10 19-9 38 2 7 5 12 3 12-3s5-8 11-5c18 12 59 13 59 1 0-6 5-4 10 4 7 11 10 11 10 2 0-10 5-10 20-2 14 8 20 8 20 0s6-8 20 0 20 8 20 0 6-8 20 0c11 6 20 7 20 3 0-10 41-10 58 1 7 4 12 2 12-4s5-8 11-5c16 10 59 13 59 5 0-10 20-8 38 3 7 5 12 3 12-3s5-8 11-5c16 10 59 13 59 5 0-10 20-8 38 3 7 5 12 3 12-3 0-7 7-7 22 1 16 9 23 9 26 1 3-9 9-9 23-2 13 8 19 7 19 0 0-8 6-8 20 0s20 8 20 0 6-8 20 0c12 6 20 7 20 1s11-6 30-1c17 5 30 5 30 0 0-10 19-8 38 3 7 5 12 3 12-3s5-8 11-5c17 11 59 13 59 3 0-5 9-4 20 2 12 6 20 7 20 1 0-10 19-9 38 2 7 5 12 3 12-3s5-8 11-5c18 12 59 13 59 1 0-6 5-4 10 4 7 11 10 11 10 2 0-10 5-10 20-2 14 8 20 8 20 0s6-8 20 0 20 8 20 0 6-8 20 0c11 6 20 7 20 3 0-10 41-10 58 1 7 4 12 2 12-4s5-8 11-5c16 10 59 13 59 5 0-10 20-8 37 3 8 5 13 3 13-3s5-8 11-5c16 10 59 13 59 5 0-10 20-8 38 3 7 5 12 3 12-3 0-7 7-7 22 1 16 9 23 9 26 1 3-9 9-9 23-2 13 8 19 7 19 0 0-8 6-8 20 0s20 8 20 0c0-7 6-8 19 0 14 7 20 7 23-2 3-8 9-7 18 4 8 8 22 13 32 10 10-2 18 1 18 8 0 10 3 10 15 0 11-9 15-9 15-1s6 9 18 2c10-5 24-6 33-1 8 5 21 5 29 0 9-6 19-3 28 8 7 9 11 11 7 5-3-7-1-13 4-13 6 0 11 5 11 11 0 5 5 7 10 4 6-3 10 0 10 7 0 10 2 10 9-1 7-10 13-11 30-2 16 9 21 9 21-1 0-9 3-9 11-1 6 6 18 9 27 6 11-5 13-3 7 8-8 12-6 12 8 0 13-11 17-11 17-1 0 8 3 10 7 7 3-4 12-2 20 4 10 9 13 8 13-1 0-10 3-10 14-1 10 8 16 9 21 1 4-7 12-7 26 0 14 8 19 7 19-1s4-9 13 0c10 8 17 7 25-1s13-7 18 6c5 14 9 14 22 4 13-11 14-11 7 1-6 11-3 13 13 9 12-4 25-2 28 4 4 6 10 5 15-3 7-12 9-12 9 0 0 10 3 11 13 2 8-6 16-8 19-6 3 3 38 7 77 9 40 2 75 6 78 10 4 3 1 6-6 6s-10 4-7 8c3 5 19 8 35 7 17-1 28 1 26 5-2 3 21 5 51 4 41-1 57 2 64 15 5 9 10 11 10 5 0-11 30-15 30-4 0 4 11 6 25 5 14-2 25 1 25 6 0 6 8 5 20-1 16-8 18-8 14 4-4 11 3 13 30 11 20-2 36 1 36 6 0 6 10 4 23-2 19-11 20-10 10 2s-8 15 7 15c10 0 16-5 13-10-4-5-1-6 8 0 19 12 52 12 61-1 5-6 8-2 8 8 0 11 4 15 12 11 8-5 9-2 5 10-4 9-3 15 2 11 5-3 12 1 14 7 4 10 6 10 6 1 1-7 6-13 12-13 5 0 8 4 5 8-3 5 8 8 24 7 17-1 30 2 30 7 0 4 5 8 11 8 5 0 8-4 4-9-3-5 0-13 6-17 8-4 9-3 5 4-10 17 28 34 44 19 10-10 11-9 5 2s-4 13 8 8c10-3 17-2 17 3s7 7 15 4c8-4 21-2 28 4 6 6 23 10 37 11 46 1 59 4 64 18 4 8 11 11 18 7 20-12 58-11 48 1-6 8 3 11 30 10 30-1 40 3 40 14 0 13 2 13 9 2 5-8 11-9 15-3 3 5 17 10 31 11 48 3 53 4 48 17-2 6 1 15 8 20 8 4 10 3 5-4-4-7-3-12 3-12 5 0 13 10 16 21 6 17 9 19 16 8 8-12 10-12 18 0 5 7 14 10 20 7 6-4 11-1 11 6 0 8 3 9 8 3 4-5 13-11 21-13 11-2 12 0 3 10-9 11-6 14 16 13 15-1 38 5 51 13s21 10 18 5c-4-5 0-10 8-10s12 4 10 8c-3 4 7 10 20 13 14 4 23 11 20 16s7 12 22 15c15 4 36 10 45 16 23 12 37 11 18-1-9-6-10-10-3-10s17 8 22 19c7 12 19 17 36 16 14-2 28 2 32 7 3 7 1 8-5 4-7-4-12-3-12 1 0 10 90 15 91 5 0-4 2-15 4-24 2-10-2-18-8-18-8 0-9-3-1-8 5-4 10-25 10-47s-5-43-10-47c-8-6-8-8 0-8 6 0 10-13 10-30 0-16-3-30-8-30-4 0-4-7-1-17 4-11 3-14-5-9-7 4-12 2-12-4s-4-9-8-6c-4 2-8-13-7-34 1-26-2-36-9-30-7 5-11-1-12-18 0-15-4-36-8-47-6-16-6-17 3-5 17 24 13 2-5-25-9-14-12-25-8-25 5 0 2-5-6-10-13-9-13-11 0-20 13-8 13-10-1-10-13 0-17-9-15-34 1-19-1-34-4-34-28 2-32-3-14-17 18-15 18-15 0-8-13 4-17 3-12-5 4-7 1-15-6-17-8-3-13-18-12-35s-2-28-6-25c-13 8-19-22-7-35 7-7 7-10 2-7-6 3-15-6-22-19-8-18-8-22 0-18 8 5 7 2 0-7-7-7-13-21-13-31s-5-18-11-18-9-7-5-15c3-8 2-14-2-14-19 3-23-2-12-16 11-13 10-14-5-9-13 5-16 4-11-4 4-7 2-12-4-12s-4-7 5-16c12-12 13-19 5-24s-7-9 5-13c9-4 13-3 10 3s-1 10 4 10c6 0 11-4 11-9 0-13 219-11 227 2 3 5 9 3 14-4 7-11 9-11 9-1 0 7 5 10 10 7 6-3 10-1 10 5 0 7 7 10 15 6 8-3 15 0 15 7 0 8 4 6 10-3 6-10 10-11 10-2 0 6 5 12 11 12 5 0 7-6 4-12-4-7-1-6 7 3 10 12 29 15 81 13 42-2 67 1 67 8 0 6 6 6 15-2 13-11 14-10 10 1-4 12 6 14 55 13 33-1 63 2 66 7 8 14 26 11 19-3-4-7 1-4 9 6 9 11 16 16 16 10 0-5 5-2 10 6s10 10 10 4c0-7 16-11 40-11 22 0 40 5 40 10s7 7 15 3c8-3 15-2 15 3s13 7 29 5c17-2 34 3 41 11 10 12 16 13 26 4 8-6 14-8 14-3s25 9 55 9c37 0 54 4 51 11s6 10 20 8c18-2 22 1 15 9-7 9 1 12 30 11 21 0 39 3 39 8 0 4 5 8 11 8 5 0 7-5 3-11-3-6 4-5 17 4 13 8 42 13 64 12s45 1 50 5c6 4 18 10 28 13 13 5 16 3 11-6-5-8-2-7 9 2 9 7 17 10 17 6s6-3 13 3c12 10 51 19 90 21 11 1 16 6 12 14-4 6 1 3 9-7 9-11 17-17 17-13 1 4 3 12 4 17 1 6 3 13 4 16 0 4 7 2 14-5 10-8 17-7 26 2s14 9 21-3c5-8 10-10 10-5 0 6-6 17-12 24-11 10-10 12 2 9 8-2 14 3 12 10-1 8 2 11 7 7 6-3 7-13 4-23-5-15-4-15 9 1 7 10 18 18 23 17 21-5 36 1 30 10-3 6 1 10 10 10 10 0 13-5 9-12-5-9-3-9 9 1 9 7 15 17 12 20-2 4 2 8 9 8 9 0 12-7 8-16-3-9 4-5 16 9s21 20 22 14c0-6 10-10 23-9 12 2 21 8 20 14-2 6 2 11 7 11 6 0 10-6 10-12 0-8 3-9 8-3 4 6 14 11 22 13s16 8 18 13 12 4 24-2 18-7 14-1c-3 5 1 12 8 15 8 3 17 1 20-6 3-9 5-9 5 1 1 6 8 12 18 12 9 0 13 3 10 7-7 6 50 46 68 47 6 1 20 7 32 14 16 9 24 9 29 1 5-9 11-7 20 5 8 12 14 14 19 6s12-5 22 7c9 11 12 12 8 3-4-8 1-6 10 5 12 16 18 17 24 7 7-11 10-10 15 3 3 9 4 20 1 25-3 4 4 6 15 3s20 0 20 6 5 11 11 11c5 0 7-4 4-10s1-7 9-4c9 3 13 10 10 15s2 9 10 9c9 0 16 6 16 13 0 9 3 8 9-2s10-10 16-1c4 6 13 9 21 6s14-1 14 5 5 7 10 4c6-3 10 1 10 10 0 13 4 14 23 4 19-11 20-10 10 3-10 12-10 15 2 16 8 1 22 3 30 4 12 1 12 4 2 16-10 13-9 14 11 3 12-6 22-8 21-4-4 23 2 43 11 38 6-4 8-12 4-18-3-7 2-3 10 7 12 15 16 16 17 5 0-8 5-3 10 10 7 18 12 21 23 12 10-8 17-6 30 8 10 11 24 17 32 14 9-3 14 2 14 13 0 14 2 16 9 6 6-11 14-8 34 11 15 13 24 27 21 30s-3 11 1 17c5 8 11 6 19-5 10-14 12-14 13 6 2 29 10 34 27 20 10-8 15-9 18-1 2 6 13 12 25 13 17 1 20 4 11 15-9 10-8 12 3 10 8-2 13 3 11 11-3 12-1 12 14 0 16-12 17-12 11 4-5 12-1 17 13 17 11 0 24 9 30 21 7 13 17 18 27 15 14-6 14-4 2 11-7 10-9 15-5 11 5-4 16-2 24 5 13 10 14 9 7-2-6-10-4-12 4-7 7 5 10 14 7 22s1 17 9 20 17 14 20 25c4 11 10 17 15 14s11-1 14 4 15 7 26 4c12-3 20 0 20 7 0 10 3 10 14 1 12-10 14-8 12 14-3 20-1 23 10 14s15-7 20 5c3 9 14 16 23 17 10 0 11 2 4 6-7 2-13 9-13 14 0 6 5 7 10 4 6-3 10 0 10 8s10 22 22 33c12 10 18 13 14 7-4-7-2-13 3-13 6 0 11 5 11 11 0 5 4 7 10 4s7 1 4 9c-3 9-1 16 6 16 6 0 8 5 5 10-6 9 11 14 45 12 11 0 10 3-4 14-16 11-17 14-4 14 9 0 21 14 27 31 9 27 13 29 32 19 15-8 19-9 15-1-4 6-1 11 6 11 9 0 9 3-2 10s-11 10-2 10c7 0 10 5 6 11-5 8-1 8 14 0 18-10 20-9 17 10-3 15 0 19 11 15 12-5 14-1 9 15-5 14-3 19 3 15 6-3 13 3 17 14 3 11 11 20 17 20s6 6-2 15c-11 13-10 14 4 9 12-5 15-2 9 12-4 12-3 15 5 10 7-4 12-2 12 4s4 8 10 5c5-3 7 0 4 9-3 8 3 19 15 26 12 6 21 15 21 21s-5 7-12 3c-7-5-8-3-3 5 4 7 15 11 24 8 10-2 18 1 18 9 0 7-4 11-9 8-13-8-9 6 6 22 17 17 30 19 20 2-5-7-3-8 5-4 7 5 10 11 7 14s0 12 7 20c9 13 9 14 0 8-7-4-13-2-13 3 0 6 7 11 15 11 13 0 14 4 5 20s-8 18 5 14c11-5 14-2 8 12-4 11-3 15 4 11s10 0 9 10c-2 11 7 23 23 31 14 7 18 10 9 7-10-2-18 0-18 5 0 6 5 10 11 10 5 0 8 4 5 8-3 5 4 19 15 31s17 26 13 33-3 8 4 4 12-1 12 9-5 13-12 9 0 7 15 23c21 22 25 33 16 38-7 5-10 4-5-3 3-6 2-13-3-16-5-4-8 1-7 10 1 8 8 19 15 24 8 4 11 12 7 18-3 5 1 13 10 16 14 5 14 9 3 23-13 15-12 15 11 3s24-12 11 3c-9 12-10 17-2 17 6 0 15 9 19 20 7 19 9 19 27 5 19-14 19-15 1-8-13 4-17 3-12-5 4-7 16-12 26-12s22-5 26-12c4-6 3-8-4-4-6 3-13 2-16-3-4-5 5-8 19-6 19 2 23-1 15-10-14-17 0-27 18-12 13 10 14 9 8-1-4-7-1-14 7-18 9-3 13-13 10-25-4-13-1-19 8-17 7 2 13-6 14-17 0-11 6-19 13-18 6 2 12-4 12-13s-5-12-12-8-8 3-4-5c4-6 15-10 24-9 9 2 16-3 15-9-2-7 2-13 8-13 5 0 7-4 4-10-3-5 2-10 12-11 16 0 16-1-2-9-14-6-16-9-5-10 8-2 19-2 24-1s6-5 2-14c-5-13-1-15 17-10 15 4 18 4 8-3-11-8-10-13 7-30 15-15 17-23 8-32-8-10-5-11 14-5 23 7 24 7 10-10-9-11-10-16-2-11 7 4 12 2 12-8 0-8 10-18 21-21 17-6 19-9 8-17-11-7-9-9 7-5 13 3 21-1 21-9 0-7-4-11-9-8-4 3-8 0-8-5 0-6 8-11 18-11 14 0 15-2 2-10-12-8-12-10 5-10s17-2 5-10c-13-8-12-10 4-10 15 0 16-3 6-15-11-13-10-14 5-9 13 6 16 4 10-5-5-10-1-12 16-7 13 3 19 3 13 0-14-6-6-44 8-44 6 0 5-7-2-15-11-14-10-14 16-5 23 9 26 9 17-1-9-9-9-15 0-25 31-34 37-44 37-59 0-8 5-15 11-15s9-7 5-15c-3-8 0-15 7-15s18-10 26-22l14-23-24 20-24 20 15-20c8-11 23-26 33-33 9-7 17-18 17-24 0-7-7-3-16 8-15 18-15 18-4-3 6-14 16-20 25-17 10 4 15 0 15-11 0-10-5-13-12-9s-8 3-4-5c6-9 11-9 24 1 10 8 13 9 9 1-4-7 0-16 10-22 17-10 17-10 0-11-17 0-16-3 4-32 13-17 18-29 13-25-6 3-11 0-11-7 0-8 6-12 13-9 6 2 15-1 20-8 4-7 3-10-4-5-6 3-13 2-17-4-3-5 2-10 11-10 10 0 14-3 11-7-4-3 1-12 11-20 9-8 11-11 3-7-10 5-12 3-7-5 5-7 14-10 20-8 7 3 13-1 13-8s-7-11-16-8c-9 2-7-1 4-8 28-17 36-32 22-41-8-5-3-8 11-8 20 0 21-3 12-20-8-15-8-20 1-18 16 4 21-34 6-45-8-6-5-7 7-3 13 5 17 2 13-8s-1-13 7-10c10 4 13-3 10-26-2-19 0-29 6-25 6 3 10-3 10-15s4-19 9-16 11-1 14-9c4-10 1-12-11-9-12 4-11 2 3-7 28-17 36-32 22-41-8-5-7-8 4-8 9 0 22-7 29-15 11-13 10-15-6-9-17 5-17 4-4-8 9-7 15-25 15-40-1-20 2-24 11-17s12 2 10-20c-1-16 2-27 6-25 5 3 12-5 17-18 4-13 12-22 17-21s8-5 6-14c-2-10 1-12 9-7 8 4 10 3 5-5-4-6-2-19 6-28 9-12 9-15 1-9-9 5-11 2-7-8 3-9 11-13 18-9s6 1-2-9c-10-12-10-17 1-27 8-6 18-7 23-3 4 4 2-1-5-10-9-12-10-18-2-18 6 0 11-7 11-16s5-13 13-9c6 4 4 0-6-8-18-15-17-16 4-22 12-4 18-10 13-14-5-3-10-12-12-20-2-11 0-12 11-3 8 7 17 9 20 5 4-3 7 1 7 11 0 9 4 15 8 12 4-2 14-1 22 5 13 7 13 9 0 9-8 1-4 6 9 11 20 8 22 11 10 26-12 14-12 16 0 8 11-6 13-4 8 8-4 10 1 18 14 22 10 4 19 12 19 20 0 7 9 15 20 18 13 3 18 11 15 26-2 12 0 21 5 21s7 9 5 19c-2 11 7 28 23 42l27 24-20-25-19-25 24 23c21 19 23 24 10 32-12 8-12 10-1 10 7 0 11 6 8 14-4 9-1 13 6 10 12-4 14 1 18 61 1 13 5 23 9 20 10-6 53 35 45 43-3 4-10 0-15-8-7-11-10-11-10-2 0 7 7 15 15 18 8 4 13 10 10 14s2 11 10 14c10 4 14 14 11 31-3 14 0 25 6 25s5 7-3 17c-10 11-10 14-1 9 8-5 12 0 12 14 0 12 4 19 9 15 5-3 13 0 17 6 4 7 3 9-3 6-6-4-13 2-16 12-3 13 0 18 8 15s12 6 13 28c0 18 6 34 11 36 6 2 9 8 5 13-3 5 2 9 10 9 11 0 16 10 16 31 0 25 3 30 18 25s15-4 2 7c-16 13-25 38-12 36 19-3 23 2 12 16-7 9-8 15-2 15 5 0 13 7 16 16 3 8 2 12-4 9s-10-2-10 4c0 5 5 11 12 13 6 2 11 20 10 40s5 41 12 47 11 22 8 36c-2 15 0 25 7 25 13 0 10 22-4 32-6 5-4 8 5 8 11 0 15 12 15 47 0 37 3 47 15 45s11 1-2 11c-16 13-16 15 9 26 22 10 24 14 12 22-10 6-11 9-1 9 7 0 10 5 7 10-3 6 0 10 7 10 10 0 11 2 0 8-14 9-6 42 10 42 6 0 4-8-3-17-13-16-12-17 4-4 11 8 14 18 8 25-12 16-10 90 3 99 8 5 7 10-3 16s-10 10-1 13c6 2 13 24 13 48 1 25 6 51 11 59 6 9 5 12-1 8-5-3-10 0-10 8s3 14 6 13c19-2 22 4 11 17-7 9-8 15-2 15s8 20 5 50c-3 36 0 50 9 50s10 2 2 8c-18 11-13 102 6 103 10 0 9 3-5 9-11 5-14 9-7 9 7 1 10 6 7 11-3 6-3 10 2 10 4 0 7 294 7 653-2 737-1 700-12 693-4-2-8 4-8 14s4 16 8 14c4-3 8 0 8 5 0 6-4 11-10 11s-9 26-7 63c2 46-1 65-13 74-12 11-13 14-1 22 8 5 9 11 3 15s-10 19-8 34c1 15-2 33-7 40-6 7-6 12 0 12 8 0 10 43 4 93-1 5-7 5-13 1-9-5-9-2 1 9 11 14 11 17 0 17s-11 2 1 10c8 5 10 10 4 10-7 0-11 28-11 76-1 42-6 79-11 83-6 3-10 30-9 58 1 55-19 107-36 96-6-4-8 0-4 10 3 9 1 18-6 21-7 2-7 5-1 5 14 1 6 103-9 113-9 5-8 8 3 8 12 0 12 2 2 9-8 5-12 21-11 37 2 16 0 35-4 42-5 7-3 12 5 12 10 0 10 2-1 9-8 5-16 20-17 33s-4 39-6 60c-2 20-6 34-10 32s-6 18-5 45-2 49-7 48c-6-1-12 6-14 17-3 13 0 16 10 10s11-5 2 7c-16 21-23 69-10 69 6 0 2 8-9 16s-19 20-17 25c1 5-2 9-8 9-5 0-10 16-10 35 0 21-5 35-12 35-9 0-8 4 2 10 13 8 8 14-10 12-3 0-4 16-2 35 4 30 2 35-11 30-11-4-14-2-10 8 3 8 10 12 17 8 6-4 5 0-2 9s-14 30-14 47c-1 19-5 28-12 24-6-4-5 1 3 11 8 9 10 16 5 15-21-4-28 2-14 11 12 8 12 10 1 10s-11 3-1 15c8 10 9 15 2 15s-9 7-5 17c4 9 2 14-3 11-5-4-10 5-11 18s-4 35-5 49c-1 13-4 22-7 20-2-3-10 3-18 13-8 9-11 11-7 3 4-9 3-12-4-7-8 4-8 15-2 31 6 17 5 25-5 29-8 3-14 13-14 23 1 29-6 50-21 69-13 17-13 18 0 7 13-10 16-9 16 7 0 10-3 18-6 18-18-1-21 4-10 17 10 12 9 16-3 21-9 3-16 13-16 22-3 90-6 99-25 94-13-3-17-1-12 6 4 7 3 12-3 12-5 0-8 15-6 33 3 23 2 28-5 17-8-12-10-10-11 10-1 14-1 28 0 33 0 4-4 7-10 7-8 0-8 4 0 14 9 10 8 16-3 25-8 7-12 19-9 27s-1 14-8 14c-11 0-11 3 1 10 11 7 11 10 2 10-7 0-11 4-7 9 3 5 1 12-5 16s-8 11-5 16c4 5 1 9-4 9-6 0-11 5-11 11 0 5 6 7 13 3 13-9-11 26-28 38-6 5-4 8 5 8 11 0 12 2 3 8-7 5-14 20-15 35s-5 27-9 27-10 7-13 16c-5 12-2 15 11 10 16-5 16-4-1 9-10 8-22 12-27 10-4-3-6 6-5 20 2 13 0 22-5 20-4-3-10-1-14 5-3 5-1 10 6 10 9 0 9 4-1 15-6 8-9 19-6 24 4 5 1 13-5 17-8 5-9 3-4-6 5-8 4-11-2-7-5 3-9 16-8 29s-3 26-9 30c-7 5-7 8 2 8 7 0 10 5 7 10-4 6-10 8-14 5-5-2-6 6-4 19 3 13-1 27-8 31-8 6-10 4-4-5 5-9 4-11-4-6-9 6-9 11 0 22 10 12 10 15-2 12-8-2-17-7-21-13-5-5-5 5-2 23 5 22 3 32-6 32-7 0-10 7-6 17 4 9 1 20-6 25-10 6-10 8 2 8 10 0 8 5-7 15-16 11-21 23-18 45 3 23 0 30-13 30s-14 2-4 9c19 12 19 16-1 38-9 11-14 23-10 28 5 4 2 5-5 1-11-6-10-12 5-29 18-22 18-22-4-4-11 10-20 26-18 35 1 9 0 20-2 24-6 11-63-20-63-34 0-6-3-8-7-5-3 4 1 15 10 25 14 15 14 19 3 19-8 0-14-3-14-6zm-2872-1420c0-5-7-12-16-15-14-5-15-4-4 9 14 17 20 19 20 6zm-5175-851c-3-5-12-10-18-10-7 0-6 4 3 10 19 12 23 12 15 0zm-2045-1000c0-5-5-10-11-10-5 0-7 5-4 10 3 6 8 10 11 10 2 0 4-4 4-10zm-137-134c4-10 1-13-8-9-8 3-12 9-9 14 7 12 11 11 17-5zm-339-364c3-5-1-9-9-9s-12 4-9 9c3 4 7 8 9 8s6-4 9-8zm-151-212c-3-11-9-17-15-14-5 3-4 12 3 20 16 19 18 18 12-6zm9308-1567c-12-20-14-14-5 12 4 9 9 14 11 11 3-2 0-13-6-23zm-437-317c-3-9-10-16-15-16s-4 9 3 20c14 22 21 20 12-4zm-479-236c3-6-1-7-9-4-18 7-21 14-7 14 6 0 13-4 16-10z"/><path d="m11782 12595c4-4 3-14-4-22-6-7-9-15-7-18 3-2 10 4 17 15 9 15 9 21-1 26-6 4-9 4-5-1z"/><path d="m11702 12515c4-4 3-14-4-22-6-7-9-15-7-18 3-2 10 4 17 15 9 15 9 21-1 26-6 4-9 4-5-1z"/><path d="m2575 9925-30-25 32 17c18 10 33 21 33 26 0 10-2 9-35-18z"/><path d="m1475 9130c4-6 11-8 16-5 14 9 11 15-7 15-8 0-12-5-9-10z"/><path d="m1431 9089c-7-12-10-23-8-26 3-3 11 5 17 17 15 28 8 35-9 9z"/><path d="m1375 9040c-3-5-1-10 4-10 6 0 11 5 11 10 0 6-2 10-4 10-3 0-8-4-11-10z"/><path d="m10946 7781c-3-5 1-11 9-14 9-4 12-1 8 9-6 16-10 17-17 5z"/><path d="m10465 7141c-3-5-2-12 3-15s9 1 9 9c0 17-3 19-12 6z"/><path d="m10308 7016c-19-14-23-26-10-26 4 0 13 9 20 20 14 23 13 24-10 6z"/><path d="m11995 6489c-4-6-5-12-2-15 2-3 7 2 10 11 7 17 1 20-8 4z"/><path d="m9293 6441c-13-11-23-23-23-27s10 2 23 14 27 19 32 15c4-5 5-2 1 5-9 15-6 15-33-7z"/><path d="m2458 5292c-15-22-28-25-45-10-7 5-18 6-25 1-17-10-118-12-124-1-3 5-11 5-17 1-18-12-91-10-99 2-5 6-8 6-8-2 0-6-9-10-20-8s-20-1-20-7c0-7-5-7-14 1-11 9-17 9-27-2-10-9-39-13-92-13-52 1-82-3-89-11-8-10-14-10-24-2-9 7-14 8-14 1 0-11-58-11-77 1-6 4-14 3-17-2s-42-8-86-7c-57 1-81-2-84-11-3-7-16-13-30-13s-27-4-30-9-48-8-100-7c-52 0-92-2-90-5 7-11-28-16-111-15-44 1-83-3-87-9-5-6-8-4-8 5 0 13-2 13-9 1-8-12-12-13-25-1-14 11-16 11-11-2 5-12-6-15-61-15-45 0-69-5-75-14-7-12-9-12-9 0 0 9-4 10-12 3-7-5-34-9-61-8-38 1-48-2-53-17-6-18-6-18-19 0-13 17-14 17-20 0-5-13-11-15-20-7-9 7-16 6-24-4-7-8-29-14-49-14s-39-1-42-2-16-3-30-4c-14 0-30-4-37-9-6-4-30-8-52-9-35-1-39-3-28-16 10-13 9-14-10-4-16 9-24 9-29 0-5-7-2-8 7-3 12 7 12 5 1-6-11-12-14-12-22 1-7 10-10 11-10 3 0-7-12-13-28-13-15 0-34-6-40-12-10-10-15-10-22 2-7 10-10 11-10 3 0-7-11-13-24-13s-27-6-29-12c-4-10-6-9-6 1-1 9-8 6-21-9-11-13-20-18-20-12s-7 9-15 6c-8-4-15-13-15-21 0-13-2-13-17-2-11 10-14 10-9 2 5-9 0-13-13-13-12 0-21-5-21-11 0-8-5-7-15 1-13 10-18 11-28 1-9-10-8-11 8-5 20 7 20 7 1-14-20-23-28-28-24-14 2 4-1 9-6 12s-10-5-11-17c-1-13 3-20 9-17s3-1-7-9c-14-11-15-16-5-20s10-6-1-6c-11-1-11-4-1-16s10-15-1-15c-9 0-10-3-4-8 12-8 14-172 2-172-5 0-5-4-2-10 12-20 14-50 2-50-8 0-8-3-2-8 12-8 14-172 2-172-5 0-5-4-2-10 12-20 14-50 2-50-8 0-8-3-2-8 12-8 14-172 2-172-5 0-5-6-1-12 5-7 7-36 6-65s2-52 6-52c26 4 52-2 46-12-4-8 0-8 15 0 16 9 21 9 21 0 0-6 9-9 20-6s20 0 20-6c0-8 3-7 9 1 11 17 21 17 32 0 5-7 9-8 9-3 0 6 9 11 20 12 12 1 18-3 14-9s1-6 14 1c17 9 23 8 31-6 6-10 11-15 11-11s14 3 30-2c19-5 28-5 25 1-4 5 4 5 19-1 19-7 26-6 26 2 0 6 3 8 6 5 4-4 2-13-4-20-9-10-6-18 10-31 11-10 17-21 12-25-13-9-16-31-4-31 7 0 7-6 1-18-5-10-6-24-1-31 4-8 4-26 0-41s-4-33 0-40c5-7 4-24 0-36-6-14-5-26 1-29 5-4 6-12 2-18-11-18-11-57 0-57 5 0 5-6-2-13-8-10-7-17 1-25s9-12 1-12c-12 0-12-18 0-36 3-6 3-14-1-18-10-11-9-60 2-68 6-4 6-12 0-20-12-15-12-28-1-45 5-8 3-13-4-13-10 0-10-3-2-11s8-20 3-35c-6-14-5-26 1-29 5-4 6-12 2-18-11-17-10-61 2-69 6-5 4-8-5-8-12 0-12-2-2-8 7-5 14-23 15-40 1-18 6-32 10-32 5 0 5-6 1-12-15-24-11-49 10-64 18-12 18-14 3-14-16 0-16-2-3-29 9-16 13-31 11-33-14-14-11-69 6-86 13-15 15-22 6-31-8-8-8-11 2-11 9 0 10-4 4-12-10-14-10-25 1-50 5-10 6-25 2-33-3-10 1-15 12-15 13 0 14-2 3-9-9-6-10-11-3-15 6-4 9-13 5-21-3-9 1-15 10-15 8 0 18-7 21-16 5-14 4-15-9-4s-14 10-9-4c3-9 13-16 22-16 12 0 13-3 4-12-13-13-17-32-5-25 5 3 9-9 10-26s8-34 15-39c10-6 10-8-2-8-11 0-10-3 4-11 15-9 16-13 5-20-12-8-11-11 2-19 10-6 15-22 14-45 0-19 3-35 8-35 4 0 5-5 2-10-3-6-2-10 2-10 10 0 47-59 48-75 0-5-4-13-10-17-6-5-5-8 3-8 9 0 11-8 8-22-3-13-3-17 0-10 3 6 10 12 15 12 6 0 5-9-2-21-8-15-8-19 0-15 6 4 11 0 11-9 0-10 5-13 13-9 8 5 8 2-2-9-11-15-11-17 2-17 10 0 13-6 10-20-3-12 0-20 6-20 7 0 9-4 6-10-3-5-2-10 4-10s8-8 4-17c-3-10-3-15 2-11 10 10 34-21 35-44 0-9 5-20 12-24 7-5 8-3 3 6s-4 11 4 6c9-6 9-11 0-22s-8-14 7-14c16 0 17-2 4-10s-13-10 1-10c9 0 24-10 35-22 10-12 13-18 7-14-8 4-13 1-13-8s4-16 9-16 14-13 21-30c7-18 17-27 24-23s6 1-1-8c-10-13-10-16 2-16 8 0 15 5 15 11s4 5 9-3c5-7 6-21 4-31-3-12 3-19 19-24 13-3 19-9 13-13-13-10-18-36-6-29 13 9 53-35 47-51-3-7 0-15 6-19 7-4 8-3 4 4-10 17 3 15 21-4 13-12 13-18 4-24-10-5-8-9 4-14 22-8 25-8 25 5 0 5-5 7-12 3s-8-3-4 5c12 18 35-5 32-33-2-13 3-23 10-23 6 0 10 7 7 16-3 12-2 12 7-2 6-9 8-23 4-30-5-7 0-6 11 3s16 10 11 3c-4-7-2-13 3-13 6 0 11-5 11-11 0-5-5-7-12-3-6 4-8 3-5-3 4-6 18-9 32-8 22 3 24 1 13-18-10-20-10-21 6-8 14 12 16 12 10-4-6-14-4-16 6-10s12 4 6-10c-5-15-4-16 9-5 8 7 15 8 15 3 0-6 14-25 31-43 25-25 28-34 18-41-9-6-10-9-2-9 6 0 15 5 18 10 9 14 55-30 55-53 0-11 4-15 12-11 8 5 9 2 4-11-5-15-4-16 9-5 13 10 15 9 15-8 0-11 7-23 16-26 12-5 14-3 8 7-5 7 0 3 11-8 11-12 30-20 43-19 19 1 20-1 10-15-7-9-8-13-4-9 5 4 15 0 23-10 8-9 12-11 8-4-10 20 4 14 28-11 12-13 28-22 36-19 10 3 12 0 8-12-5-13-3-15 11-7 12 6 23 6 33-1 11-8 11-9-3-4-10 3-20 1-23-5-4-5-3-9 2-8 35 6 62-3 69-23 7-22 7-22 15-3 6 17 8 17 8 3 1-17 13-23 35-19 5 1 3-5-4-14-11-14-11-16 1-13 8 2 17 8 21 13 4 6 8 2 8-7 0-16 11-23 33-19 4 0 7-5 7-12 0-8 4-7 10 3 8 12 10 12 10 1 0-8 7-11 19-8 13 3 18 0 15-8-4-8 3-11 20-10 14 2 26-1 26-7s6-6 15 2c12 10 16 9 21-4 3-9 15-16 25-16s19-5 19-11c0-8 5-7 16 1 8 8 14 9 13 4s-1-16 0-24c1-12 3-12 10-2 7 11 9 11 14-2 4-9 1-16-5-16s-8-3-5-6c4-4 13-1 22 6 12 10 15 10 15 0 0-7 8-10 19-7 15 4 18 1 13-12-5-14-4-14 11-2 11 8 17 9 17 2 0-6 13-9 30-7 22 2 30-1 30-13 0-9 3-12 8-6 8 12 44 16 37 5-3-4 2-11 11-14 10-4 13-2 8 6s-2 9 10 5c10-4 24-7 32-7 10 0 12-5 8-12-5-9-2-9 9 1 13 10 17 10 17 1 0-8 9-11 25-8 14 3 25 1 25-6s3-7 8 1c6 9 14 8 35-6 15-9 25-20 22-23-3-2 16-5 42-5 97-1 163-7 163-14 0-4 19-7 41-6 27 2 43-2 47-11 4-11 6-11 13 0 6 9 11 10 17 2 9-13 42-26 42-16 0 11 64 8 72-3 5-7 8-7 8 0 0 11 161 12 179 1 6-4 11-4 11 1 0 10 93 8 109-1 6-4 11-4 11 1 0 10 93 8 109-1 6-4 11-4 11 1 0 10 93 8 109-1 6-4 11-4 11 1 0 10 93 8 109-1 6-4 11-4 11 1 0 10 94 8 111-2 7-5 10-4 5 3-3 6-2 13 4 17 5 3 10 0 10-7 0-10 2-10 9 1 5 7 14 10 20 7 6-4 11-1 11 6 0 10 2 10 9-1s10-11 15 0 7 11 12 1c3-6 11-9 16-6 6 4 32 8 57 10 62 4 71 6 71 14 0 4 11 5 24 3 15-3 35 3 54 17 23 17 44 22 106 23 64 1 76 3 71 16-4 11 0 9 15-4 16-14 21-16 18-5-2 10 4 14 20 12 12-2 29 4 38 13 12 12 19 13 30 4 9-8 14-8 14-1 0 6 9 9 20 7s18 0 15 6c-4 5 5 9 20 9 14 0 33 9 42 20 10 11 22 20 27 20 6 0 5-5-2-12s-12-17-12-22c0-6 7 0 16 12 8 12 20 19 26 16 6-4 8-2 5 3-4 6 0 13 8 17 8 3 15 0 15-7 0-8 4-7 10 3 5 8 25 15 46 15 21 1 40 7 42 14 3 9 8 9 20-1s14-10 8 0c-7 11-3 14 27 16 6 1 18 8 25 16 8 8 11 9 7 3-8-17 26-4 43 16 8 9 11 10 7 3-3-6-1-12 4-12 6 0 11 9 11 21 0 15 5 19 15 15 8-3 15-1 15 5s4 8 10 4c5-3 17-1 27 4s26 12 37 15c12 4 16 12 12 23-6 14-3 14 15-3 22-19 22-19 10 3-10 19-9 21 9 18 13-3 20 2 20 12 0 13 3 13 15 3s15-10 15 0c0 8 3 10 7 7 3-4 12 1 20 11 8 9 12 12 9 6s1-11 8-11c8 0 12 6 9 14-4 9 0 11 13 6 12-4 15-3 10 6-6 9-1 12 15 9 14-2 24 2 25 10 1 6 2 16 3 22 0 5 9 6 19 3 15-6 16-5 2 13-8 10-10 16-6 12 5-4 16-2 24 5 11 8 14 8 9 0-4-6-3-15 3-18 6-4 9-3 8 2-4 15 13 53 24 53 6 0 6-6-2-15-11-13-10-14 4-9 11 4 16 14 13 25-4 15-2 17 13 9s17-6 13 10-2 19 11 14c11-4 16-1 16 11 0 14 3 15 14 6s16-9 22 0c4 8 3 9-4 5s-12-2-12 3c0 6 8 11 18 11 15 0 15 2 2 11-12 9-11 10 7 6 17-4 21-1 18 14-4 22 10 34 21 18 5-8 3-9-6-4s-11 4-6-4c6-9 12-9 24 1 27 20 28 22 10 15-10-4-18-2-18 3 0 6 5 10 11 10 5 0 8 4 5 9-3 4 6 7 19 6 13-2 24 0 24 3-1 4 2 18 6 30 6 18 10 20 16 10 7-10 9-9 9 5 0 12 4 16 13 11 9-6 9-4 1 7-8 10-6 18 8 32 20 19 25 9 6-13-7-8-4-7 8 3 11 9 25 14 29 10 5-5 4-1-2 7-9 11-8 20 3 34 11 16 16 17 31 5 14-10 16-10 6 0-14 16-6 41 12 41 7 0 18 7 25 15 10 12 9 15-4 15-10 0-14-5-11-10s1-10-5-10c-20 0-4 25 18 28 15 2 19 8 15 20-3 9-3 14 1 10 10-8 73 54 68 68-2 7 2 15 9 20 8 5 10 3 4-6s-4-11 4-6c7 5 10 14 7 22-3 9 1 14 12 14 10 0 13 3 7 8-5 4-11 13-13 21-3 12-1 12 14 0 16-13 16-12 4 11-13 24-12 24 5 10 10-8 16-10 12-3-10 16 3 44 16 36 6-4 8 0 4 10-3 9-3 16 1 16 19-3 25 2 12 11-10 6-11 10-2 10 6 0 12 7 12 15s6 15 13 15c8 0 7 4-3 10-12 7-12 10-1 10 7 0 11 6 8 14-4 11-1 13 10 9s14-2 9 5c-4 8 0 12 11 13 10 0 13 3 6 6-7 2-13 9-13 15s6 8 14 5c11-4 13 1 10 19-2 13 0 24 6 24s8 6 4 13c-6 9-4 9 8-1 13-11 16-10 14 5 0 10-5 21-11 25-6 5-3 8 6 8 11 0 15 8 14 25-2 14 1 25 6 25s9 9 9 21c0 11 5 17 10 14 13-8 8 18-5 27-6 5-3 8 6 8 11 0 15 8 14 25-2 14 1 25 6 25 6 0 7 5 4 10-3 6-2 10 3 10 6 0 8 9 5 20s-1 20 5 20c5 0 12 9 15 21 4 13 10 18 18 13 8-4 10-3 5 5-4 6-13 9-19 5-7-3-4 1 5 9 10 8 15 17 11 20-3 4-1 7 5 7 7 0 12 5 12 11 0 5-6 7-12 3-8-5-7-1 2 10 8 10 13 31 12 48-2 21 1 27 10 22 7-4 10-4 6 1-4 4-3 14 4 22 9 11 7 12-8 7-17-5-17-4-4 8 9 7 15 24 14 38s3 28 10 33c8 5 7 9-3 16-8 5-9 10-2 12 5 2 12 22 15 43 3 22 9 42 13 45 5 3 8 41 7 84-1 42 2 77 6 77s10 9 13 21 9 19 14 16 8 35 7 84c0 57 3 89 10 89 6 0 5 4-2 9-15 9-15 17 0 45 8 14 7 17-4 10-8-4-7 0 3 12 9 10 14 24 12 31-2 6 1 14 7 18 8 5 8 10 0 20-7 8-7 21-1 38 5 14 7 28 4 31-4 3-2 6 4 6s9 14 8 30c-3 33 20 65 37 54 7-4 8-2 4 5-4 6-11 9-16 6-4-3-6 4-3 16 4 14 8 17 13 9 5-9 10-6 15 9 3 11 4 25 0 31-3 5 0 7 7 5 8-3 18 4 24 17s9 18 8 12 2-17 8-25c8-12 9-12 5 1-7 24 27 75 49 72 15-3 16-2 5 12-12 14-12 16 2 11 8-4 18-1 23 6 5 8 3 10-7 5-8-4-5 0 6 8 11 9 25 14 32 12 7-3 12-2 12 2-1 4-1 14 0 22 1 13 2 13 12 0 7-11 12-12 15-3 3 7 11 10 19 7 7-3 16 0 21 7 5 8 3 10-6 4-9-5-11-4-6 4 6 9 11 9 21 1s15-8 20 0c4 7 18 10 31 7 14-2 27 0 30 5 4 6 10 5 15-3 8-12 11-11 19 1 5 8 10 10 10 5 0-14 53-13 62 0 5 7 8 7 8 0 0-6 33-10 80-10 56 1 80-3 80-11 0-7 11-11 25-9 23 2 30-6 26-28-1-5 6-4 16 1 14 8 21 4 35-19 10-16 24-29 32-29s18-5 22-12 3-8-4-4c-8 5-10 2-6-8 3-9 11-14 17-13 7 1 11-3 10-10-2-7 4-10 12-7 10 4 15 0 15-11 0-10-4-13-12-9-9 5-9 3 1-9 12-15 31-15 31-1 0 3-5 2-12-2s-8-3-4 4c5 9 12 8 26 0 11-7 15-15 9-19-6-3-4-11 6-19 16-13 21-35 6-26-5 4-4-5 2-19 7-14 15-25 20-25 4 0 7-6 7-14 0-7 6-18 13-24s12-24 11-39 3-33 8-40c6-7 5-14-2-18-8-5-8-11 1-21 9-11 8-14-2-14-10-1-8-4 4-11 9-5 17-15 17-20 0-6-5-7-11-3-8 4-8 1-1-12 5-11 8-49 7-86-1-38 2-68 6-68 5 0 4-12-1-26-7-16-7-23 0-19 6 3 10-1 10-9 0-9 6-16 13-16 8 0 7-4-3-10-8-5-10-10-5-10 12 0 35-87 26-96-8-8-8-54-1-54s10-17 12-67c1-18 6-33 12-33s4-5-4-10c-11-7-11-10-2-10 10 0 10-5 1-22l-12-23 24 20c18 16 21 16 10 2s-11-23-2-43c6-14 11-34 11-44 0-11 6-20 13-20s8-3 2-8c-12-9-13-32-1-51 7-11 6-12-5-6-12 7-12 6-1-7 7-9 14-30 15-47s6-31 11-31 7-3 3-6c-3-4 4-15 16-26s16-17 10-13c-9 4-11 1-7-9 3-9 10-13 15-10s9-6 9-20 5-28 10-31c7-4 6-13-1-27-7-13-7-18-1-14 6 3 13 2 17-4 3-5 0-10-7-10-10 0-10-2 1-9 7-5 10-14 7-20-4-6-2-11 5-11 8 0 8-4-1-15-10-12-10-15 4-15 9 0 16-5 16-11 0-5-5-7-11-3-6 3-3-8 5-25 9-17 21-31 26-31 6 0 10-9 10-19s7-21 15-25c9-3 12-12 8-22-4-11 2-23 18-35 18-15 19-18 5-12-13 4-17 3-12-5 4-7 14-12 23-12 13 0 13-3 3-15-7-9-10-18-6-22 3-3 6-1 6 6s5 9 10 6c6-3 10-14 10-25 0-10 7-21 16-24 10-4 14-14 11-25-3-12 1-22 10-25 8-3 11-10 8-16-4-6 1-7 11-3 12 4 15 3 10-6-8-13 14-71 28-71 4 0 1 12-8 28l-17 27 20-23c11-13 17-30 14-39-5-12-3-14 7-8s12 4 7-9c-5-11-3-15 5-10s9 2 5-9c-7-20 8-23 17-4 3 6 4-1 2-16-2-20 0-27 10-23 7 3 16-3 19-13s15-23 28-29c12-6 16-11 10-11-7-1-22 8-33 19s-20 16-20 11c0-6 9-16 20-24s17-17 13-21 1-4 11 0c13 5 17 4 12-4-4-7-2-10 6-7 7 3 18-5 23-17 6-13 18-22 28-22 13 2 15-1 7-11s-8-15 1-21c8-4 9-3 5 4s-2 12 3 12c6 0 11-5 11-11 0-5 6-7 13-3 7 5 6 0-3-11-14-17-13-18 8-13 20 6 21 4 11-8-7-8-8-14-3-13 26 5 36-1 25-15-9-11-7-12 12-9 24 5 43-19 32-38-4-5 0-6 8-3s18 0 23-7c4-7 3-10-4-5-6 3-14 1-18-5-4-8-3-9 4-5s12 3 12-2c0-6 7-9 16-8 9 0 19-6 21-14 4-13 3-13-6 0-6 8-11 10-11 4 0-19 25-35 38-24 7 6 10 7 7 4-3-4 3-13 13-21 9-8 12-12 5-9-6 4-15 2-18-4-4-6-3-10 2-9 19 3 34-2 28-10-3-5 0-13 6-17 8-4 9-3 5 4-10 17 3 15 20-2 11-11 11-16 1-20-6-3-2-3 11 0 14 3 24 0 28-10 3-8 13-17 21-20 14-6 14-4 2 10-13 16-12 16 8 3 12-7 20-15 18-17-9-9 40-39 54-34 11 4 13 0 8-17-3-13-3-20 0-17 4 3 12 1 20-6 8-6 29-13 46-15 18-2 34-8 35-13 2-6 9-7 15-3 7 4 8 0 4-11-4-9-3-15 2-12 4 3 18-4 29-15 17-15 26-17 41-9 14 7 22 7 27-2 4-7 3-8-4-4s-12 3-12-2c0-6 7-13 16-16 8-3 13-10 10-15s4-7 15-4c15 4 27 0 35-12 10-13 14-14 14-5s5 8 16-6c8-10 13-13 9-6s0 12 10 12 13-5 9-11c-5-8 1-10 19-7 20 4 24 2 19-11s-3-14 10-3c12 10 18 10 27-2 7-8 19-12 27-9 7 3 16-2 20-10 3-9 12-13 21-10 10 4 14 2 10-4-5-7 0-9 12-6 10 3 22 0 25-6 5-7 0-9-11-5-14 5-15 4-4-4 8-6 23-9 33-7 12 3 18-2 18-13 0-14 2-15 9-3 8 12 12 12 25 2 9-8 16-10 16-6s7 2 15-5c11-9 15-9 15-1 0 7 5 9 10 6 6-4 8-10 6-14-3-4 10-7 29-6 19 0 35-3 35-8s8-3 17 4c11 10 14 10 9 1-4-7-2-12 4-12s8-5 4-12c-5-7-3-8 7-3 20 13 49 13 56 2 4-6 1-7-7-2-9 5-11 4-6-4 6-9 11-9 22 0 10 8 14 8 14 0 0-7 15-10 40-8 22 2 42-1 44-7s5-4 6 4c0 10 6 6 16-10 9-15 13-18 9-6-5 16-3 17 10 6 8-7 12-17 9-22-4-6 13-9 42-8 83 3 115 0 110-9-3-4 23-8 58-8s68-3 75-7c6-4 11-1 11 6 1 8 6 6 15-6s15-14 15-7 6 11 13 8c6-2 11-9 10-14-1-6 16-7 42-3 27 4 48 3 55-4 6-6 10-6 10-1 0 11 92 11 109 1 6-4 11-2 11 5 0 8 4 8 15-1 8-7 15-9 15-4 0 10 103 10 119 0 6-4 11-4 11 1 0 10 93 8 109-1 6-4 11-4 11 1 0 10 93 8 109-1 6-4 11-4 11 1 0 10 93 8 109-1 6-4 11-4 11 1 0 10 93 8 109-1 6-4 11-3 11 2 0 6 9 8 20 5 13-3 20 0 20 8 0 11 2 11 10-1 7-12 10-12 10-1 0 7 6 11 15 7 8-3 15 0 15 7 0 8 3 8 9-2 7-11 10-11 15 0s7 11 12 1c4-9 9-10 19-2s15 8 20 0 12-5 22 7c10 13 16 15 19 6 3-7 10-13 15-13 6 0 8 4 4 9-7 13 32 18 77 10 25-4 36-2 35 5-1 6 10 11 25 10 21 0 25 3 17 12-8 10-4 12 16 8 15-3 24-1 22 3-3 4 6 8 19 8s24-4 24-10c0-5 5-3 10 5s10 11 10 5c0-5 4-4 9 3 5 9 30 14 64 15 30 1 50 5 44 9-7 4 2 8 19 8 16 0 36 6 43 12 9 8 12 9 7 1-7-13 19-12 31 2 4 4 2 5-6 0-10-5-12-4-7 4 4 6 12 8 18 5 6-4 14 0 19 7 7 11 9 11 9 1 0-7 5-10 10-7 6 4 7 12 3 18-4 7 0 6 10-2 13-10 17-10 17-1 0 7 7 10 16 6 11-4 15-2 11 8-4 11-1 13 10 9 12-5 14-3 8 8-8 12-6 12 8 0 14-11 18-11 23 3 4 10 13 15 21 12 9-4 11-2 7 6-5 7 0 9 14 6 16-5 22-2 22 10 0 15 2 15 10 2 9-13 14-8 11 12 0 3 13 5 29 3 17-2 30 1 30 7 0 7 6 6 15-2 13-11 14-10 9 4-5 12-2 15 12 9 13-5 15-3 9 7s-3 12 13 8c12-4 22-2 22 4s7 7 15 4c9-3 18 1 21 9 4 8 12 15 20 15s11 6 8 15c-4 8-2 15 4 15s13-6 15-12c3-8 6-5 6 5 1 11 5 15 13 11 8-5 9-2 4 12-4 10-4 15 0 11s18 0 30 8c17 11 25 12 30 3 5-7 3-8-6-3-9 6-11 4-5-5 6-10 11-9 21 5 7 10 11 21 9 26-3 4 0 11 6 15 8 4 9 3 5-4-11-17 17-15 40 4 19 15 18 15-2 5-15-7-21-7-21 3 0 7 6 13 14 14 7 1 20 3 28 4s15 8 15 16c0 12 2 12 17 1 11-10 14-10 9-1-4 7-1 12 9 12 9 0 13 5 10 10-6 9 8 15 29 11 5-1 3 5-4 14-11 13-10 14 5 9 14-6 16-4 10 7-8 12-6 12 8 1 14-12 16-11 12 8-3 18-2 20 10 10 11-9 16-6 25 12 10 21 10 21-3 5s-15-16-21-2c-3 9-2 13 4 10s13 1 16 9c5 13 10 13 27 4 21-11 21-10 7 7s-13 18 4 12c16-6 17-5 6 8s-10 14 3 10c8-4 18-1 23 6 4 8 3 10-4 5-8-5-10-2-6 9 5 11 10 13 19 5 10-9 12-7 8 8-3 14 4 23 34 35 23 10 28 15 13 12-14-3-19-2-12 1 6 3 10 9 7 14-3 4 4 6 15 3 12-3 20 0 20 6 0 7-5 9-12 5s-8-3-4 4 16 17 28 23c16 9 19 8 12-3-4-7 2-5 13 5 11 9 23 14 26 10 4-3 7-1 7 6 0 8-7 10-21 6-19-6-20-5-8 8 8 8 17 13 20 11 7-4 23 26 21 38-1 4 5 5 13 1 13-5 13-7-2-20-16-13-16-13 5-3 19 9 21 14 11 26-6 8-9 17-5 21 3 3 6 2 6-4 0-5 7-10 15-10 12 0 12 3 2 16-10 12-9 13 2 6 11-6 13-4 8 9-4 9-3 15 1 12 14-9 32 10 34 36 1 15 6 24 10 22 5-3 5-10 2-16-5-7-2-8 5-4 7 5 10 10 7 14-3 3 2 11 12 19 9 8 11 11 4 8-11-6-11-3-1 13 7 12 17 18 23 15 5-4 7 1 3 11s-3 15 3 11c6-3 10-1 10 5s4 9 9 5c5-3 13 0 17 6 4 8 3 9-4 5s-12-3-12 2c0 6 7 12 15 16 8 3 15 15 15 26 0 12 4 19 9 15 6-3 8 6 5 21-3 14-1 23 3 21 5-3 17 2 28 10 19 15 19 15-5 8l-25-6 24 19c17 13 22 25 17 37-5 15-4 16 8 6 17-14 23-5 20 27-1 17 3 22 14 17 12-5 13-3 2 10s-11 16 1 13c8-2 13 3 11 10-1 6 2 12 8 12 5 0 6 7 3 17-5 12-3 14 8 8 12-7 12-6 1 7-11 14-9 19 10 32 15 11 18 16 8 16-12 1-11 3 3 14 18 14 24 32 7 21-15-9-12 0 9 23 10 12 22 18 27 14s0 3-11 16c-18 22-18 23 0 16 13-5 16-4 11 4-4 7-2 12 4 12 7 0 9 7 6 16-6 15-4 15 10 3 16-13 16-12 6 8-16 29-15 34 6 26 15-6 15-5 3 10-10 13-10 17-1 17 7 0 10 6 7 14-3 7 2 24 10 37 9 12 11 19 5 15-7-4-10 1-9 14 1 12 7 18 14 16 8-3 10 1 6 11s-2 14 4 10c5-3 10 0 10 8s-4 12-9 9c-4-3-5 2-2 10 3 9 11 13 17 9s7-1 1 8c-13 21-14 39-1 39 7 0 5 5-3 10-13 8-12 10 3 10 9 0 17 6 17 14s4 16 10 18c5 2 10 20 12 41 1 20 7 37 13 37 5 0 3 5-5 10-9 6-10 10-3 10 6 0 11 13 11 29-1 15 2 33 6 40 4 6 2 11-5 11s-4 7 7 15c14 11 15 14 4 15-12 0-12 2-1 9 7 5 13 25 13 45s5 36 12 36c6 0 4 5-4 10-11 7-11 10-2 10 7 0 10 5 7 10s-1 10 5 10c7 0 8 6 2 15-4 9-5 40-2 70 4 36 2 55-4 55s-3 5 7 11c14 8 15 14 7 24s-8 16 2 22c16 10 19 223 3 223-5 0-3 5 5 11 11 8 12 12 2 16-6 2-9 10-6 15 11 18 10 118-1 118-5 0-3 5 5 11 11 8 12 12 2 16-6 2-9 9-6 15 11 17 10 288 0 288-6 0-1 7 10 15 16 13 17 16 4 25-11 7-11 10-2 10 8 0 10 5 6 13-6 9-4 9 8-1 13-10 18-10 24-1 5 8 3 10-7 4-11-6-11-5-2 5 6 7 23 12 37 12 14 1 31 7 37 14 9 11 15 11 25 3 8-6 14-8 14-3s30 9 68 8c49 0 70 4 80 15 11 14 11 14 6-2-5-13-2-16 10-11 9 3 14 10 11 14-2 4 9 6 25 4 17-2 30 1 30 7s6 7 13 3c9-6 9-4-1 8-9 12-10 18-2 23s8 10 0 20-7 14 2 18c10 4 10 6-1 6-10 1-11 4-2 15 8 10 9 16 1 21-6 3-7 12-3 18 11 18 11 47 0 47-5 0-4 7 3 15 10 12 10 15 0 15s-10 3 0 15c9 11 9 15 1 15-7 0-9 5-5 12 12 18 12 48 1 55-5 3-3 9 4 14 12 7 12 9 0 9-11 0-11 3-1 15 9 11 9 15 1 15-7 0-9 5-4 13 10 16 10 38 0 60-5 11-4 17 4 17s8 4-1 15c-10 12-10 18-1 29 9 10 9 16 1 21s-8 10 0 20 8 15-1 20c-8 6-7 10 2 16 12 7 12 9 0 9-10 0-11 3-2 14 8 10 9 16 1 21-6 3-8 11-4 16 9 16 11 100 2 105-5 3-4 12 3 20 9 11 9 14-1 14-9 0-10 3-1 14s6 17-15 30c-14 10-23 23-20 31 7 19-5 27-22 13-11-10-18-7-34 12-11 14-17 19-13 13 3-7 1-13-4-13-6 0-11 3-11 8 0 4-9 13-21 20-12 8-18 9-14 3 7-12-22-10-42 2-7 5-17 5-23 2-6-4-7 1-3 11 5 13 3 15-8 8-21-13-38-14-46-2-4 7-1 8 7 3 9-5 11-4 6 4-5 7-16 9-28 5-13-4-18-2-14 4 8 13-24 28-66 31-19 1-20 3-8 11 9 6 10 10 3 10-6 0-15-5-18-10-4-6-15-1-26 12-14 16-22 19-25 11-7-17-24-16-24 1 0 9-8 12-26 8-16-3-29 1-35 9-7 12-10 12-21 0-11-11-11-13 1-6 10 5 12 4 7-4-4-6-12-9-17-5-5 3-7 10-4 15 4 5-8 9-25 9s-41 5-52 11c-16 9-19 8-12-3 6-10 5-11-7-1-19 15-88 23-95 11-3-5-14 3-25 16-11 14-23 25-27 25-4-1-11 0-17 1-5 1-30 3-55 4-32 1-44 5-42 14 1 8-2 11-8 7-6-3-8-11-5-16 4-5 2-9-4-9-5 0-11 5-13 11s-33 11-73 11c-39 0-76 6-84 12-12 9-13 8-7-3 6-9 5-12-5-9-8 3-13 10-12 15 2 12-40 12-49-1-5-8-8-8-8 0 0 5-13 9-30 8-16-1-30 3-30 8 0 6-8 4-17-3-10-8-14-9-10-2 4 6 3 14-3 18-5 3-10 1-10-5s-5-8-12-4c-7 5-46 8-86 9-52 0-75 4-82 15-5 8-7 17-5 20s-37 5-86 4c-61-1-86 2-82 10 3 6 0 5-8-1-16-16-55-17-64-3-5 8-11 8-20 0-9-7-15-7-23 2-7 9-47 13-141 12-75 0-131 4-131 9s-8 3-17-4c-14-12-16-12-11 1 4 12-4 15-41 14-25-1-51 3-58 8-6 5-14 5-17 0-6-11-35-9-61 4-13 7-205 10-528 10-280-1-511 2-514 7-2 4-10 4-16 0-7-4-27-9-46-10s-38-8-42-15c-7-10-9-10-9 2 0 10-3 11-8 4-8-12-80-13-99-1-6 4-14 3-17-2-7-10-66-9-83 2-6 4-14 4-17-1-6-10-106-10-123 1-6 4-14 3-17-2-7-10-66-9-83 2-6 4-14 3-17-1-3-5-21-8-41-7-19 1-35-3-35-8s-7-4-15 3c-13 11-14 10-8-6s5-17-9-6c-9 7-19 9-22 4s-70-8-149-8c-124 1-144-1-139-14s4-13-13 0c-10 8-16 10-12 4 4-7-22-10-88-10-63 1-91-2-85-9s-7-11-38-12c-82-1-93-3-88-11 3-5-1-9-9-9s-11 5-8 11c5 8 2 8-8 0-8-6-40-11-72-10-31 1-57-2-57-6s-11-3-25 2c-19 7-23 6-19-4 4-11-12-14-75-13-54 0-86-5-98-14-15-12-16-12-8 1 7 12 6 13-6 4-8-7-25-11-39-10s-30-5-37-14c-9-10-12-11-13-2 0 6-5 12-11 12-5 0-8-4-4-10 3-5-10-8-32-7-21 1-44-3-51-10s-20-9-28-6c-9 3-20 0-24-7-5-8-16-15-24-16-9-1-14 1-11 5 2 4-2 8-10 8s-11-5-8-10c4-6-5-8-21-5-15 3-26 1-26-6s-3-7-8 1c-6 10-14 9-36-2-26-14-28-14-22 3 5 15 5 15-6 1-7-9-23-15-35-14-13 1-23-2-23-7s-9-4-19 2c-14 7-20 7-23-2-3-7-33-13-73-15-38-2-76-10-84-16-9-7-12-7-8-1 3 6 0 11-8 11s-12-4-9-9c4-5-9-8-27-6-26 2-39-3-53-20-15-19-21-21-34-10s-14 11-7-1c6-11 4-13-8-8-9 3-19 2-22-3s-14-7-25-5-20 0-20-5c0-4-18-10-40-12s-40 0-40 5c0 4-8 3-18-2s-24-6-32-1c-9 6-18 3-26-8-10-14-14-15-30-2s-17 13-12 0-2-16-36-14c-22 1-46-2-51-7-6-4-20-8-30-8-11 0-35-2-52-4-19-2-33 1-33 7 0 7-3 8-8 1-4-6-56-10-120-10-68 0-112 4-112 10 0 7-3 7-8 0-4-5-38-10-77-10-38 0-73 5-77 10-5 7-8 7-8 0 0-6-21-9-50-7-27 2-47 8-44 13s-9 9-25 9c-18 0-31 5-31 13s-4 7-10-3c-9-13-10-13-10 0s-1 13-10 0c-7-11-10-12-10-2s-14 13-47 12c-82-3-95-1-87 13 6 9 4 9-7 1-15-11-24-11-51-1-39 15-48 16-48 6 0-6-8-3-17 8-10 10-13 12-8 4 9-12 7-12-12-1-12 8-19 18-17 22 3 4-20 9-50 9-66 2-67 2-83 12-7 5-17 6-22 2-5-3-12-1-16 4-3 6-13 7-22 4-12-5-14-3-8 8 4 8 5 11 0 7-4-4-14-3-22 4-11 9-12 7-6-8 6-17 5-17-10-5-10 8-40 14-70 14-28 0-55 5-59 11-5 8-8 7-8-2 0-10-4-9-16 3-14 13-19 14-25 3-6-9-9-10-9-1 0 7-7 10-15 7-8-4-15-1-15 5s-5 11-11 11c-5 0-7-4-4-10 3-5 2-10-4-10-5 0-13 10-16 21-6 17-9 18-16 8-6-11-9-11-14 1-4 11-21 15-64 14-32-1-63-4-69-8-7-4-12-2-12 4s-4 9-9 5c-5-3-12-1-16 5-4 7-13 6-27-1-15-8-19-8-14 0 7 10-19 16-51 12-7-1-13 4-13 11 0 9-3 9-10-2-7-12-12-12-29 4-16 15-21 16-21 5 0-8-3-10-8-4-4 6-18 10-32 10s-28 4-31 8-41 9-85 10c-59 1-81 6-86 17-5 12-7 11-7-4-1-20-1-20-17 0-8 10-12 12-8 4 7-12 5-13-8-3-8 7-18 10-21 6-4-3-13 0-21 6-11 10-16 9-24-5-6-11-12-13-16-6-4 6-14 8-23 5-12-5-14-3-8 7s4 12-8 7c-9-3-18-3-21 1-2 4-52 7-110 6-62-1-104 2-100 7 3 5 0 9-5 9-6 0-11-5-11-11s-5-5-13 3c-9 9-41 13-95 13-55 0-81 3-78 11 2 6-2 11-10 11-7 0-10-5-7-10 4-6 1-7-8-1-8 5-22 7-33 5-10-1-23 3-27 11-7 11-9 11-9-1 0-11-3-11-17 0-9 8-14 9-10 3 8-14-165-13-175 1-5 6-8 4-8-5 0-13-1-13-10 0-8 12-12 13-19 2s-9-11-13 0c-5 11-117 13-634 12-346 0-634 4-641 8-7 6-16 2-25-10zm22-2c0-5-5-10-11-10-5 0-7 5-4 10 3 6 8 10 11 10 2 0 4-4 4-10zm8245-18c-3-3-11 0-18 7-9 10-8 11 6 5 10-3 15-9 12-12zm1446-169c13-16 12-17-3-4-10 7-18 15-18 17 0 8 8 3 21-13zm-9656-648c11 1 26 4 33 8 7 5 12 3 12-3s5-8 13-3c18 11 37 13 37 3 0-5 14-5 30 0 19 5 30 5 30-1s8-5 20 1 20 7 20 1c0-10 19-9 38 2 7 5 12 3 12-4 0-8 4-8 13-1 8 7 18 7 27 2s19-5 27 2c9 7 13 7 13-1 0-7 5-9 13-4 16 10 37 13 37 4s42-7 58 3c7 4 12 2 12-4s5-8 13-3c18 11 37 12 37 2 0-6 8-5 20 1 11 6 20 7 20 3 0-10 41-10 58 1 7 4 12 2 12-4s5-8 13-3c18 11 37 13 37 3 0-5 14-5 30 0 19 5 30 5 30-1s8-5 20 1c15 8 20 8 20-2 0-9 3-9 10 2 5 8 10 10 10 5 0-12 40-13 58-1 7 4 12 2 12-4s5-8 13-3c18 11 37 13 37 3 0-5 14-5 30 0 19 5 30 5 30-1s8-5 20 1c11 6 20 7 20 3s18-7 40-7c22 1 40-2 40-6 0-5 10-6 22-2 12 3 19 1 15-4-3-5 3-10 14-10 10 0 19 3 19 6 0 4 7 7 15 7s15-5 15-10 6-4 14 2c9 8 16 8 20 2s18-6 34-1c16 4 36 4 45-2 10-5 17-5 17 0 0 10 36 9 46-1 4-3 15-2 25 3 12 7 20 6 25-1 4-8 9-7 15 2 6 10 9 11 9 2 0-7 9-13 20-13s20-5 20-10c0-7 6-7 20 0 14 8 20 8 20 0 0-7 6-8 19 0 14 7 22 7 26 0 4-6 10-8 15-5 4 3 11-2 14-11 5-13 9-14 21-4s15 10 16-1c0-11 2-11 6-1s8 10 19 1 14-9 14 1 3 10 15 0c8-7 15-9 15-4s5 2 10-6c9-13 10-13 10 0 1 13 2 13 9 0 7-11 27-15 74-15 42 0 63-4 60-11-3-9 43-12 72-4 6 2 17 1 25-3 8-3 24-7 35-10s29-8 39-13c14-5 17-4 12 4-5 9 0 9 19 2 15-6 31-8 36-4 5 3 10-3 10-13 1-17 2-17 6-1s6 16 19 4c7-8 24-12 36-9 19 4 20 3 8-7-12-8-8-10 18-6 17 2 32 1 32-3s18-7 40-6c23 1 43-2 46-7s10-5 16-2c7 4 8 2 4-4-7-11 6-17 27-13 5 1 6-3 3-8-3-4 11-11 32-15 20-3 49-12 64-20 19-10 30-11 34-4s10 5 16-5c5-9 15-14 24-10 8 3 21-2 28-12s18-15 24-11c6 3 14 1 18-5 4-8 3-9-4-5-17 10-15-3 3-20 8-9 19-13 25-9 5 3 7 0 4-8s3-20 13-28c17-13 17-13 3 6s-14 19 3 6c10-8 16-20 13-28s-2-11 3-8 12-4 16-15 10-18 15-15c4 3 16-3 27-13 10-9 13-13 6-8-10 6-12 4-7-8 3-9 14-16 24-16 11 0 22-5 26-12s3-8-4-4c-8 5-10 2-6-8 3-9 10-13 15-10 8 4 14-17 10-38 0-5 4-8 10-8 5 0 7-4 4-10-3-5-1-10 4-10 6 0 11-5 11-11 0-5-4-7-10-4s-7-1-4-9c3-9 9-16 13-16 3 0 6-45 6-99 1-60-3-97-9-94-5 4-6 1 0-8 13-20 12-241 0-258-8-11-8-13 0-8 7 4 10-14 10-54-1-46-4-58-15-54s-12 3-1-10c7-8 8-15 3-15s-9-33-10-72c-2-121-3-129-11-124-4 2-7-8-6-22 1-15-2-37-7-49-5-14-4-23 4-27 7-2 5-5-4-5-12-1-16-10-14-41 1-22-2-40-8-40-5 0-4-7 3-15 10-12 10-18 0-30-6-8-8-20-4-27 5-8 1-8-11 2-17 14-17 13-10-9 5-18 4-22-6-16-9 6-11 4-6-7 3-9 0-21-6-27-8-8-8-11 1-11 10 0 10-5 2-20-6-11-8-25-5-30 3-6 1-10-5-10-7 0-10-7-7-15 4-8 2-17-4-20-5-4-7-11-4-16 4-5 1-9-4-9-6 0-11-4-11-10 0-5 8-6 17-3 15 6 16 5 3-9-8-9-18-14-22-11-4 2-5-4-1-13 5-12 3-15-6-9-10 6-11 3-2-14 8-14 8-21 1-21-5 0-10-7-10-15s-5-15-11-15c-8 0-7-6 2-17 10-11 10-14 2-9-8 4-13 2-13-8 0-8-7-22-16-30-9-9-11-16-4-16 6 0 8-5 5-10-4-6-11-8-16-5-5 4-9-1-9-9 0-9-5-16-11-16-8 0-8-4 1-15 10-12 8-14-9-10-11 2-24-1-27-7-4-6-3-8 3-5 6 4 13 0 17-8 3-8 0-14-7-12-7 1-11-6-11-15 1-10-2-18-7-18s-9-5-9-11c0-5 5-7 12-3s8 3 4-4c-4-6-14-8-24-5-14 6-15 4-4-9 10-13 10-18 1-24-8-5-9-3-4 7 8 12 6 12-8 0-9-7-17-20-17-27 0-8-5-14-11-14-8 0-7-6 2-17 12-15 12-16-3-10-13 5-18 1-18-12 0-17-24-36-41-33-4 1-5-7-2-17 3-13-2-23-16-30-12-7-21-9-21-5 0 3-7 1-15-6s-12-16-9-21-2-19-10-31c-9-12-16-18-16-12 0 5 6 16 13 24 10 12 9 12-4 2-9-6-18-9-22-6-3 3-3-4 0-17 4-14 2-20-4-16-15 9-36-19-27-35 5-8 1-8-11 2-11 9-16 10-11 3 4-8 2-13-4-13s-9-4-5-9c3-6-4-15-15-21s-20-8-20-4c0 3-7 1-15-6s-12-16-10-21c7-10-16-49-29-49-5 0-1 10 10 23 19 22 19 22-2 4-11-9-24-14-28-10s-4-1 0-11c5-13 4-17-3-13-6 4-10-1-9-11 0-9-6-17-15-17-20 0-51-30-41-40 4-4-2-5-13-3-13 2-19-2-17-11 3-12 1-12-14 0-16 12-17 12-11-5 6-15 3-17-12-13-15 3-18 0-14-17 3-13 2-17-4-9s-12 8-25-1c-10-7-16-16-13-19 3-4 2-5-2-2-3 3-12 0-20-7-11-9-12-7-6 7 6 17 5 17-14-1-11-10-18-22-16-26 7-13-12-9-26 5-10 10-11 9-6-5s2-16-14-13c-12 2-19 0-16-6 4-5 1-9-5-9s-8-5-4-12c4-6 3-8-4-4-5 3-12 3-15-1-2-5-2-2-1 5 2 6-1 12-6 12-6 0-10-6-10-14s-5-18-12-22-8-3-4 4 2 12-3 12c-6 0-11-5-11-11s-9-8-22-4c-18 5-20 4-8-4 13-9 12-13-4-28-18-16-19-16-7 0 9 10 9 17 3 17s-16-8-21-17c-6-10-11-14-11-9s-7 3-15-4-22-10-30-6c-10 3-15-1-15-12 0-15-2-15-10-2-5 8-10 10-10 4 0-7-7-15-16-18-8-3-12-2-9 4s1 10-4 10c-6 0-11-5-11-12 0-6-3-8-7-5-3 4-13 1-21-6-13-10-15-9-8 3 4 9 1 8-7-2-15-19-32-25-22-8 3 6 1 10-4 10-6 0-11-5-11-11s-7-9-15-6c-8 4-17 2-21-4-3-6-12-8-20-5s-14-1-14-10c0-10-6-14-15-10-10 3-15-1-16-12 0-10-3-12-6-5-3 9-10 10-22 3-10-5-21-6-25-3-3 3-6 1-6-7 0-10-3-10-14-1-10 9-16 9-21 1-4-6-13-9-20-6-7 2-18-1-24-7-8-8-11-8-11 2 0 7-5 9-10 6-6-4-8-10-6-14 3-4-9-5-26-3-24 4-29 2-23-9 8-12 6-12-8 0-14 11-17 11-17 0 0-10-3-10-11-2s-20 8-36 2c-14-5-29-7-34-3-5 3-9 0-9-5 0-6-5-11-11-11-5 0-8 4-4 10 3 5-7 3-22-5-17-9-29-11-31-5s-10 6-23 0c-10-6-19-7-19-2 0 10-30 9-47-1-6-4-14-3-18 2-4 7-15 7-30 1-16-6-25-6-25 1 0 6-7 6-20-1-11-6-20-7-20-2 0 10-30 9-47-1-6-4-14-3-18 2-4 7-15 7-30 1-16-6-25-6-25 1 0 6-7 6-20-1-11-6-20-7-20-2 0 10-30 9-47-1-6-4-14-3-18 2-4 7-15 7-30 1-16-6-25-6-25 1 0 6-7 6-20-1-14-8-20-8-20 0 0 7-7 7-21-1-12-6-19-7-16-2 3 4-6 13-19 20-13 6-22 7-18 2 7-12-3-11-27 1-13 7-19 7-19 1 0-7-8-7-24-1-13 5-27 6-31 2-3-3-10 0-15 8-8 12-10 12-10 1s-5-10-24 2c-17 12-26 13-35 4-7-7-11-7-11-1s-7 11-15 11-15-4-15-9-7-2-16 6c-8 9-20 14-25 11-5-4-9 0-9 7 0 9-3 9-10-2s-10-11-10-2c0 7-4 10-10 7-5-3-10-2-10 3 0 6-7 13-16 16-15 6-15 4-3-11s11-15-8 1c-13 10-21 21-19 25 2 3-10 6-27 7-40 1-60 6-69 19-5 6-12 4-18-5-8-12-10-12-10-1 0 8-7 11-20 8-11-3-18-1-15 3 3 5 1 11-4 14-5 4-13 2-16-4-5-8-11-7-21 1-7 6-20 9-27 6-16-6-59 28-49 38 4 5 1 5-6 1-8-5-19-1-28 10s-12 13-8 5c5-9 3-12-4-7-7 4-12 14-12 22 0 14-2 13-16 0-19-19-25-20-22-3 2 7-10 13-30 15-18 2-30 8-27 13 4 5-8 9-24 9-25 0-31 4-31 23 0 12-4 18-8 12-9-13-35-18-27-5 6 9-8 14-28 11-5-1-6 3-2 9 3 5-1 10-10 10s-13 5-10 10c3 6 1 11-4 11-6 1-15 3-21 4-5 1-18 3-27 4-14 1-15 3-5 10 10 6 9 10-7 14-12 3-19 1-16-3s-6-3-20 3c-14 7-25 15-25 20 0 4-7 7-15 7s-15 4-15 9-9 11-19 14c-11 2-29 23-40 45s-26 44-33 48c-6 4-4-3 5-17 9-13 17-28 17-34-1-5-8 3-16 18s-19 25-24 22c-4-3-6 5-3 17 4 19 3 20-6 8-9-13-11-12-12 5-1 11-1 24 0 29s-5 4-13-3c-13-11-17-9-26 14-6 16-16 25-24 22-9-4-12 2-11 18 2 16-2 22-14 21-9-1-15 5-13 14 2 8 1 12-3 8s-14 0-22 8-19 12-24 9c-5-4-6 2-2 11 5 13 3 16-10 11-11-4-14-2-10 8 3 8 10 12 17 8 6-3 3 3-7 14-9 11-17 27-17 36 0 10-8 17-19 17-21 0-44 23-34 34 4 4 1 11-7 16-10 7-11 10-2 10 6 0 12 4 12 10 0 5-7 7-15 3-10-3-15 0-13 8s-4 13-12 11c-12-3-13-1-2 9 17 18 15 32-3 25s-20 5-2 23c6 7 8 12 2 11-5-2-16-2-24-1-11 1-11 4 0 18 10 12 10 15 1 9-7-4-19 0-28 8-8 9-11 16-6 16s9 7 9 14c0 8-3 15-6 14-3 0-13 0-21 1-13 1-13 2 0 11 10 6 11 10 3 10-7 0-13 11-13 25s-6 25-12 25c-9 0-8 4 2 10 12 7 12 10 1 10-7 0-11 6-8 14s-1 17-10 20c-12 5-13 9-3 21s9 15-6 16c-11 0-13 3-7 6 9 3 10 10 3 22-5 10-6 21-3 25 3 3 0 6-8 6-11 0-11 2 1 10 10 6 11 10 3 10s-13 13-13 30-5 30-11 30c-5 0-7-5-3-12s3-8-5-4c-9 6-9 11 0 22s8 14-3 14c-8 0-15 11-16 26s-7 33-13 40c-9 11-8 14 1 14s8 6-4 19-14 21-6 26 5 11-7 21c-11 8-13 13-5 14 6 0 12 5 12 10 0 6-6 10-12 10-9 0-12 16-10 55 3 35 0 55-7 55-6 0-11 5-11 11 0 5 4 7 10 4 5-3 10-2 10 4 0 5-5 11-10 13-12 4-16 90-6 107 7 10-7 16-29 11-7-1-7 2 0 9 6 6 8 148 5 405-3 218-2 396 2 396s4 7 1 17c-4 10-2 14 4 10 5-3 10-1 11 6 3 42 7 57 15 57 4 0 5 5 2 10-4 6-3 10 2 9 18-4 41 13 36 27-3 9 0 14 8 12s13 3 11 11c-2 9 4 12 18 8 11-3 18-1 15 3-3 5 0 12 6 16 8 4 7 9-2 16-10 7-8 8 8 5 13-3 26 0 30 5 3 7 1 8-5 4-7-4-12-2-12 3 0 6 7 11 16 11 8 0 13 4 9 9-3 5 0 13 6 17 7 4 9 3 5-4-3-6-2-13 4-17 5-3 10 1 10 9 0 21 21 31 31 15 7-11 9-10 9 4 0 10 4 16 8 13 5-3 19 4 30 15 13 11 22 15 22 8s3-10 6-6c3 3 4 8 2 11-6 10 42 37 53 30 6-3 15 0 20 7 8 12 11 12 19-1 7-11 10-11 10-2 0 8 5 10 13 6 8-5 7-2-2 9-13 16-12 17 10 9 29-11 52-5 42 11-4 7 1 6 10-2 13-11 17-11 17-1 0 8 3 10 7 7 3-4 12-2 20 4 9 9 13 8 13 0 0-9 5-9 21-1 15 9 24 8 35-1 12-10 13-9 9 3-5 11 0 15 17 14 13-1 35 3 49 10 15 7 29 11 32 8s15-1 26 6c16 8 21 8 21-2s2-10 9 1c5 8 14 10 21 6 8-5 11-4 7 2s2 13 13 16 20 2 20-2 9-7 20-8 20 3 20 8c0 7 6 7 17 0 11-6 24-6 37 1s21 6 27-3c7-12 9-12 9 0 0 8 7 11 20 8 11-3 20-1 20 5 0 5 5 6 10 3 6-3 10-1 10 5 0 8 6 8 20 0 15-8 20-8 20 2 0 9 3 9 12 0 7-7 17-8 29-2 11 7 20 7 24 0s13-6 27 1c16 8 19 8 13-1s-2-9 14-1c16 9 21 9 21 0 0-8 4-8 15 1 9 7 15 8 15 2 0-11 32-11 40 0 3 4 18 9 34 12s31 8 34 11 8 2 11-2c3-5 15-8 26-8zm6975 6c0-6 12-6 30-1 19 5 30 5 30-1s8-5 20 1c15 8 20 8 20-2 0-9 3-9 10 2 5 8 10 10 10 5 0-12 40-13 58-1 7 4 12 2 12-4s5-8 13-3c18 11 37 12 37 2 0-6 8-5 20 1 11 6 20 7 20 3 0-10 41-10 58 1 7 4 12 2 12-4s5-8 13-3c16 10 37 13 37 4s42-7 58 3c7 4 12 2 12-5 0-8 4-8 13-1 8 7 18 7 27 2s19-5 27 2c9 7 13 7 13-1 0-7 5-9 12-5 17 11 58 11 58 1 0-4 9-3 20 3 15 8 20 8 20-2 0-9 3-9 10 2 5 8 10 10 10 5 0-12 40-13 58-1 7 4 12 2 12-4s5-8 13-3c16 10 37 13 37 5 0-4 22-6 50-5 28 0 50-3 50-9s9-8 20-5 23 1 26-4c3-6 11-5 20 2 11 9 14 9 14-1s3-10 15 0 15 10 15 0 3-10 15 0c9 8 15 8 15 2 0-7 10-8 30-2s30 5 30-2c0-6 6-6 15 2 12 10 15 10 15 0s3-10 15 0 15 10 15 0 3-10 14-1c9 8 16 8 20 2s18-6 36-1c20 6 30 5 30-2 0-6 6-6 15 2 12 10 15 10 15 0s3-10 15 0 15 10 15 0 3-10 14-1c9 7 17 8 20 2 3-5 15-7 26-4 13 3 20 0 20-8 0-11 2-11 10 1 7 12 10 12 10 1 0-7 6-11 14-8s17 3 20 0c10-10 56-10 56 0 0 4 3 6 8 4 4-3 31-8 61-11 30-4 61-11 68-18 10-8 13-7 13 3 0 11 2 11 10-1 5-8 12-12 15-8 4 3 22 0 41-8s34-11 34-8 11-1 24-10c16-10 27-12 31-5 4 6 11 6 18 1s24-9 38-8c16 1 25-3 22-9-2-7 13-11 41-10 24 0 42-3 40-7-3-4 5-12 17-18 15-8 19-9 15-1-4 6-2 11 3 11 6 0 11-5 11-11s7-8 16-5c8 3 12 2 9-4s4-10 15-10c15 0 20-5 17-14-4-10-1-13 9-9 7 3 14 1 14-4s23-16 50-23c28-7 50-18 50-22 0-5-5-6-12-2s-8 3-4-4c4-6 13-9 20-6 8 3 17 0 22-7 4-7 3-10-3-6-5 3-10 0-10-8s4-12 8-9c4 2 13-4 19-13 11-17 11-17 6 0-3 9-1 17 4 17 6 0 10-7 10-16s5-12 13-8c7 5 6 0-3-11-8-10-10-16-5-14 12 7 46-27 37-37-4-4 1-4 10-1 10 3 20 1 24-5 4-7 3-8-4-4-15 9-15 3-1-28 7-14 15-23 19-21 5 3 11-2 14-11 4-10 2-13-7-8s-9 4 0-6c6-7 9-19 6-26-3-8-1-14 5-14 11 0 11-18-1-37-5-8-3-13 3-13s8-5 5-11c-10-16-13-59-5-59 10 0 8-20-3-37-5-8-3-13 3-13s8-5 5-11c-9-14-14-59-6-59s4-347-4-360c-3-6-1-10 5-10s8-5 5-11c-10-16-13-59-5-59 9 0 8-20-2-35-4-6-5-23-4-38 2-14 0-24-4-22-4 3-10-4-13-15s0-20 5-20c6 0 5-6-2-15-10-12-10-15 0-15s10-3 0-15c-7-8-8-15-3-15s9-9 9-20-4-20-9-20c-4 0-5-4-2-10 3-5 1-10-5-10s-8-4-5-10c3-5 2-17-3-26s-6-32-2-50c5-20 4-34-2-34-5 0-6-4-3-10 3-5 0-10-7-10-9 0-9-3 2-10s11-10 2-10c-7 0-11-4-7-9 3-5 1-12-4-16-6-3-7-13-4-22 4-11 3-14-5-9-7 4-12 2-12-3 0-6 6-11 13-11 9 0 9-2-1-9-7-4-12-12-11-17s-2-24-6-42c-6-26-10-30-22-21-11 9-12 9-7-4 3-8 1-25-6-36-8-16-8-21 2-22 10 0 10-2 1-6-7-2-13-13-13-23s-5-22-11-26c-7-4-7-10-1-16 12-12 4-41-9-33-4 3-6-4-4-15s-1-20-6-20c-6 0-7-4-4-10 3-5 1-10-5-10-8 0-8-6 0-20 8-16 8-18-4-14-11 4-13 0-9-17 5-19 3-21-12-15-18 7-18 6 0-14 11-12 15-21 10-20-20 4-35 0-35-11 0-5 5-7 12-3s8 3 4-4-14-12-22-12-14-5-14-11c0-5 5-7 12-3 6 4 8 3 5-4-4-5-17-8-30-5-18 4-19 3-7-6 13-10 13-12 0-21-8-5-11-10-6-10 4 0 1-12-9-26-11-18-13-24-4-19 8 4 4-2-8-14-25-24-31-39-10-25 7 5 3 0-10-11-13-12-23-28-23-38 0-9-5-17-11-17-5 0-7 5-4 10 10 16-1 11-16-7-10-11-10-14-1-9 6 4 12 2 12-3 0-6-5-11-11-11-5 0-8-4-5-9 3-4-3-16-14-26s-20-23-20-29 4-5 9 3c6 9 11 10 15 2 7-10-5-15-30-12-6 1-18-7-25-16-13-17-13-17 6-3s20 14 2-6c-9-11-14-24-10-27 3-4 1-7-5-7-7 0-12 5-12 11 0 5-4 8-10 4-5-3-7-12-4-20 4-10 0-13-16-10-17 3-19 1-11-9 9-10 8-15-4-20-9-3-13-11-9-17 4-8 3-9-5-5-9 6-9 12 1 24 12 15 11 16-4 3-10-7-15-17-12-22s0-9-6-9-8-5-4-11c4-8-1-9-17-4-19 6-22 5-12-6 16-16-2-40-24-32-12 5-15 2-10-10 3-9 2-19-3-22-6-4-10-1-10 6 0 8-4 8-15-1-8-7-15-18-15-24s5-4 11 4c9 13 10 13 6 0-2-8-10-14-17-12-15 3-40-16-40-31 0-6 7-2 15 9 8 10 15 14 15 8 0-16-21-33-36-27-8 3-17-2-20-11s-10-16-16-16c-5 0-6 6-2 13 4 6-2 4-13-6-16-14-22-15-26-5-3 7-6 3-6-9-1-13-6-23-12-23-5 0-7 5-3 11 3 6-5 4-18-5-14-9-27-13-31-10-3 4-11-5-18-19-6-14-20-28-30-30-12-3-17-1-13 6 3 7-4 1-16-13s-19-19-15-13c4 9 1 11-9 7-9-3-16-13-16-21 0-13-2-13-17-2-9 8-14 9-10 3 4-7-3-14-18-18s-23-11-19-17c4-7-1-7-15 0-17 10-22 9-27-4-3-8-10-12-15-9s-12-2-15-11c-4-9-13-14-20-11-8 3-14 1-14-4s-7-6-17-3c-12 5-14 3-8-7s3-12-13-8c-13 4-20 2-16-3 3-6-6-8-20-5-15 3-26 0-26-6s-7-5-17 3c-11 10-14 10-9 2 4-7 2-14-3-14-14-2-29-6-36-9-9-4-25-7-46-9-13-1-18-5-13-13 5-10 4-10-6-1-11 10-17 10-29 0s-13-9-7 3c4 9 2 8-7-2-8-10-18-14-22-10-5 4-5-2-1-12 5-16 4-17-9-6-10 9-15 9-15 1 0-6-12-11-27-10-16 1-40-3-55-9-16-7-28-9-28-6 0 4-11-1-24-10-15-10-27-12-31-6-3 6-11 10-16 10-6 0-7-5-3-11 5-8-12-10-59-7-36 2-64 1-62-2 2-4-9-6-25-5-21 1-30-3-31-14 0-9-3-11-5-4-4 10-62 8-73-3-2-2-12 1-22 7-11 5-19 6-19 1 0-4-9-8-20-8s-20 4-20 8-10 4-23-1c-14-5-30-5-40 0-12 7-17 6-17-3 0-8-3-9-11-1-6 6-23 8-43 3-19-4-41-3-50 2s-16 5-16 1c0-5-9-9-20-9s-20 4-20 8c0 5-9 4-20-2s-20-7-20-3-11 8-25 8-25-4-25-9-6-4-12 2c-7 5-22 6-33 2s-28-3-37 2c-12 6-18 5-18-2 0-6-5-8-12-3-17 10-37 14-75 16-18 1-33 5-33 10 0 10-23 4-32-8-5-6-8-5-8 2s-6 10-14 7-27 1-43 8c-15 8-38 13-51 12-12-1-25 2-27 6-3 5-14 6-25 3s-20-1-20 5c0 5-6 10-12 9-33-1-48 4-48 16s-15 17-62 20c-10 1-18 8-19 17 0 10-3 9-9-5-5-11-9-14-9-7-1 7-5 10-11 7-5-3-10 1-10 9 0 10-7 13-21 11-12-3-27-1-33 3-6 3-17 7-25 9-8 1-17 5-20 10-10 13-31 14-32 1-1-7-4-2-8 12s-14 24-21 22-17 3-21 10c-7 11-9 10-9-1 0-8-8-4-21 10-11 13-18 18-14 12 9-18-3-16-21 2s-38 20-28 3c4-7 3-8-5-4-6 4-9 12-6 17 5 8-9 13-18 7-2-2-11 5-21 15-10 9-22 15-27 12-5-4-9 0-10 7 0 10-2 11-6 0-4-9-10-7-23 8s-19 17-23 8-6-8-6 3c-1 22-37 53-52 43-8-4-10-3-5 4 4 7 1 12-9 12-9 0-14 4-11 9 4 5-2 8-11 7-10-2-24 4-31 13-11 13-12 13-7 1 4-10 2-9-8 2-8 10-18 14-23 10-4-4-2 1 5 11 12 15 11 17-5 18-11 1-23 1-27 0s-2 9 4 21c11 20 10 21-2 11s-18-9-29 7c-7 10-18 16-24 13-6-4-5 0 2 9 10 13 9 18-5 29-11 9-14 10-9 1 4-6 2-12-3-12-6 0-11 7-11 15s-5 15-11 15c-5 0-8 4-4 9 3 6-4 8-15 6-17-3-19-1-9 16 10 19 9 20-13 8-13-6-20-8-16-4 9 10-15 34-27 27-5-3-4 2 4 11 12 15 11 17-5 18-11 1-22 1-25 1-4-1-4 9-1 21 5 19 3 20-10 9-13-10-15-9-14 10 0 13-4 22-11 21-6-2-15 6-18 17-4 11-10 18-14 15-5-2-17 5-27 18-19 21-19 21 1 7 13-9 11-4-5 12-14 14-29 23-34 20s-6 0-2 7c5 7 13 9 20 4 7-4 4 0-7 9-10 10-16 22-12 28s-1 7-11 3c-14-5-16-3-11 12 6 14 5 16-6 6-12-9-14-6-12 14 2 17-2 25-12 25-13 0-13 2-2 17 10 11 10 14 2 9-8-4-13-2-13 4s-5 8-11 4c-7-4-7 1 1 16 7 12 8 20 3 17-4-3-14 1-21 9-8 9-9 14-2 14s6 5-2 14c-7 8-15 12-18 11-3-2-7 5-8 16-1 10-3 28-4 38-2 14-6 17-14 10s-15-6-20 2c-4 8-3 9 4 5s12-2 12 3c0 6-4 11-10 11-5 0-10 9-10 20s-4 20-10 20c-5 0-10 5-10 11 0 5 6 7 13 3 10-6 10-4 0 7-7 7-13 23-13 36s-5 23-11 23c-8 0-7 6 2 17 10 11 10 14 2 9-9-5-13 2-13 23 0 17-4 31-10 31-5 0-10 5-10 11 0 5 6 7 13 3 9-6 9-5 0 7-6 8-13 23-15 34-1 11-7 23-13 27-6 5-5 8 3 8 11 0 11 3-1 14-8 9-12 29-10 56 2 24-2 49-9 58-11 13-11 14 2 7 12-6 13-5 3 6-7 7-13 21-13 30s-6 19-14 22c-9 4-12 17-9 42 2 21-2 44-8 52-7 8-12 39-11 68 0 30-4 57-9 60-14 9-11 27 4 19 6-4 5 1-3 12-12 14-16 39-14 91 0 46-3 70-9 66s-7-1-1 8c13 21 14 119 0 119-8 0-8 2 0 8 6 4 11 30 11 57 0 28-5 53-11 57-8 6-8 8 0 8 14 0 14 102 0 112-8 6-8 8 0 8 14 0 15 110 0 110-7 0-7 3-1 8 17 12 41 47 28 38-7-4-13-2-13 3 0 6 6 11 14 11 10 0 13 7 11 20-2 11 0 18 6 15 5-4 9-2 9 2 0 5 7 18 16 29 8 10 12 13 8 5-5-10-3-12 5-7 9 6 9 11 1 21s-8 15 1 21c8 4 9 3 5-4s-2-12 3-12c6 0 11 5 11 11 0 5 6 7 13 3 8-6 8-3-1 9-12 14-11 16 8 12s20-2 8 12c-10 13-10 15 0 9 17-10 44 13 37 32-5 13-3 13 12 1 11-9 14-10 9-1-4 7-1 15 8 18s16 10 16 16c0 5-5 6-12 2s-8-3-4 5c6 9 11 9 21 1 12-10 13-8 10 10-4 19-2 20 12 8 9-7 14-8 11-3-5 9 15 36 27 35 21-1 25 1 20 10-3 6-1 10 4 10 6 0 11-6 11-12 1-9 5-8 13 3 7 9 20 15 30 13 9-1 17 1 17 6 0 4 14 6 31 5 19-2 29 1 26 9-3 7 7 11 27 10 17 0 36 4 43 8 6 5 31 10 56 11s43 6 39 11c-3 5 5 7 16 4 12-4 20-2 16 3-3 5 0 9 6 9s9 4 6 9c-4 5 9 8 29 7 20-2 35 1 36 8 0 6 3 5 6-3 4-10 7-10 13-1 4 6 30 13 58 13 27 1 48 5 47 8-2 3 10 3 27 1 18-3 28-1 25 5-3 5 0 10 8 10s11-5 8-11c-4-6 3-3 14 7 11 9 22 14 25 11 10-9 58-12 52-3-5 8 10 13 29 10 4-1 16 3 25 8 11 6 24 6 32 1s19-6 25-2c5 4 12 7 15 7 41 5 80 18 80 27 0 7 4 7 14-1 10-9 15-8 19 4 5 11 12 13 32 5 17-7 25-6 25 1 0 8 4 8 13 1 8-7 18-7 27-2 8 5 19 6 24 3 15-9 56-10 56-1 0 4 11 3 24-2s27-5 32 0 24 12 43 15 38 8 43 11c4 3 8 0 8-6 0-7 7-8 18-3 20 10 64 9 81-1 6-4 11-3 11 2 0 10 36 9 46-1 4-3 13 1 21 9s19 12 24 9c5-4 17-1 26 4 23 13 33 14 33 2zm-2676-747c3-8 2-12-4-9s-10 10-10 16c0 14 7 11 14-7zm-6313-821c13-16 12-17-3-4-10 7-18 15-18 17 0 8 8 3 21-13zm6757-698c-3-3-9 2-12 12-6 14-5 15 5 6 7-7 10-15 7-18zm-2288-59c0-2-7-7-16-10-8-3-12-2-9 4 6 10 25 14 25 6zm-80-66c0-5-5-10-11-10-5 0-7 5-4 10 3 6 8 10 11 10 2 0 4-4 4-10zm-160-160c0-5-5-10-11-10-5 0-7 5-4 10 3 6 8 10 11 10 2 0 4-4 4-10zm810-90c-6-11-13-20-16-20-2 0 0 9 6 20s13 20 16 20c2 0 0-9-6-20zm5481-123c-10-9-11-8-5 6 3 10 9 15 12 12s0-11-7-18zm-3401-57c0-5-2-10-4-10-3 0-8 5-11 10-3 6-1 10 4 10 6 0 11-4 11-10zm-2310-94c0-2-7-9-15-16-13-11-14-10-9 4s24 23 24 12zm2711-263c13-16 12-17-3-4-10 7-18 15-18 17 0 8 8 3 21-13zm-3026-13c3-6-1-7-9-4-18 7-21 14-7 14 6 0 13-4 16-10zm3089-36c5-14 4-15-9-4-17 14-19 20-6 20 5 0 12-7 15-16zm132-66 19-21-27 18c-29 18-34 25-20 25 5 0 17-10 28-22z"/><path d="m1490 4306c0-2 7-7 16-10 8-3 12-2 9 4-6 10-25 14-25 6z"/><path d="m3186 4121c-3-4-88-8-190-7-101 0-182-2-180-5 4-7-47-19-83-19-13 0-21-4-18-10s-1-7-9-4c-9 4-16 1-16-6 0-9-4-9-17 1-13 11-15 11-9 1 6-9 3-12-10-10-11 2-19-3-19-12 0-8-8-14-17-14-10 1-17-1-16-5 2-19-4-24-12-11s-10 12-10-3c0-10-5-15-10-12-6 4-26-5-45-20-27-20-33-22-28-8 6 14 3 13-16-4-15-14-20-26-15-35 6-10 4-10-9 1-15 12-17 12-11-4 5-13 4-16-4-11-7 4-12 2-12-4 0-7-7-9-16-6-8 3-13 2-9-3 3-5-8-20-25-34-16-14-26-27-21-29 4-2-5-16-21-33l-30-30 17 30 18 30-26-30c-15-16-24-36-22-43 4-10 0-10-18-1-20 11-21 11-8-4 10-13 10-17 1-17-7 0-10-7-6-16 6-15 4-15-11-3-10 9-14 9-10 2 5-7-1-21-13-33s-18-26-13-33c4-7-2-5-12 3-11 9-16 10-11 3 4-7 2-13-3-13-6 0-10-3-10-7 3-17-1-33-8-32-20 3-26-2-13-11 10-6 11-10 3-10-7 0-13-12-13-26 0-20-4-25-16-20-10 4-13 2-7-7 11-17 13-38 3-32-5 3-11 1-15-5-3-5 0-10 7-10 8-1 7-4-4-10-14-9-35-81-30-102 1-5-4-8-11-8-8 0-7-4 3-10 13-8 12-10-2-10-10 0-18-5-18-11 0-5-5-7-12-3s-8 3-4-5c6-9 11-9 23 1 15 12 15 11 3-9-8-12-18-19-24-16-5 4-7-1-3-10 3-9 1-19-5-23-7-4-6-9 3-15 11-7 11-9 1-9-7 0-11-4-7-9 3-5 2-12-3-15-10-6-8-365 2-388 4-9 5-22 1-28-3-5 1-10 9-10 9 0 13-6 10-14-3-9 7-28 25-45 32-31 41-48 19-35-9 5-8 2 1-9 11-13 17-15 28-6s12 9 8-4c-4-8-1-18 4-22 6-3 8-11 5-17-4-6 3-5 16 2 15 8 20 8 16 1-6-10 6-15 27-12 4 0 7-4 7-10 0-8 6-7 17 2 9 8 14 9 10 3-4-7 1-18 10-25 9-8 14-9 10-3-5 9 26 11 113 9 70-2 120 1 120 7 0 5 5 6 12 2 6-4 17 1 25 11 7 11 13 15 13 11 0-5 7-3 15 4s12 16 9 21 0 9 6 9 8 5 4 12c-5 8-2 9 10 5 13-5 19-1 23 13 3 11 10 17 17 13 6-4 5 1-3 11-8 9-10 16-5 14s10 2 12 7c2 6 11 19 20 29 9 11 12 16 5 13-6-4-14-3-18 3-3 5 0 10 7 10 11 0 14 30 13 153 0 83 3 160 8 171 6 13 6 16-2 12-6-4-11-2-11 3 0 6 6 11 14 11s18 5 22 12c5 7 3 8-6 3-15-9-10 1 22 47 13 19 15 29 7 34-8 4-4 11 12 20 13 7 25 17 25 23 1 6 2 16 3 21 0 6 6 10 12 10 5 0 7-6 3-12-6-10-3-9 8 0 9 8 15 19 12 27-3 7 0 16 7 21 7 4 10 3 6-3-3-5 0-10 8-10s12 4 9 9c-3 4-1 8 5 8s7 8 4 17c-5 13-2 15 11 10 9-4 15-3 12 2-3 4 4 17 17 27 18 16 19 16 8 2-9-12-10-18-2-18 6 0 11 4 11 8 0 5 7 17 16 28 8 10 13 14 10 7-4-7 1-9 14-6 11 3 20 11 20 18 0 14 17 15 38 2 7-5 12-3 12 3 0 7 6 8 18 1 11-6 24-6 32-1 9 5 19 5 27-2 9-7 13-7 13 1 0 13 22 10 33-4 4-6 10-6 15 2s13 9 22 3c8-5 22-4 33 2 15 7 22 7 28-3 5-9 9-10 9-3 0 12 31 14 40 3 3-4 16-9 30-10 14-2 28-8 32-13 4-6 14-4 24 5 16 13 16 12 4-11-12-22-12-24 2-12 13 10 18 9 29-5 13-16 12-17-4-4-15 12-17 12-11-3 3-9 14-16 24-16s21-9 25-19c4-12 12-18 20-14 9 3 18-4 24-18 5-13 10-20 10-15 1 6 8 1 17-10 8-10 12-12 8-4s4 4 18-9c15-14 23-31 20-40-4-10-1-12 8-6 10 6 12 4 7-8-4-11-2-14 9-10 8 3 14-1 14-11 0-9 5-16 11-16s9-9 6-19c-4-15 0-18 18-16 16 1 22-2 18-11-4-12 7-18 28-16 4 1 5-7 2-17-3-11 2-21 13-25 15-6 15-4 3 11-12 17-12 17 7 0 15-14 16-19 6-26-11-7-10-9 3-14 9-4 13-3 10 3s-1 10 4 10c6 0 11-5 11-11s7-9 15-6c8 4 17 1 21-5 5-7 2-8-7-3-8 5-11 4-6-1 13-14 229-14 246 0 11 8 13 8 8 0-4-6 9-4 28 4 19 9 35 21 35 28 0 6 10 19 23 30 22 19 22 19 5-2-10-11-18-24-18-29 0-4 9 2 20 15 12 13 19 29 16 35-2 6 5 11 18 11 15-1 20 4 18 17-2 10 3 17 13 17s13 5 9 12c-5 8-2 9 10 5 9-4 15-3 11 2-3 5-2 11 2 14 5 2 2 2-6 0-12-3-12-1 0 13 15 19 20 216 5 206-5-3-7 2-3 11 3 10 2 17-4 17s-7 5-4 10c3 6 1 10-4 10-6 0-11 8-11 18s-6 24-12 31c-11 11-10 12 0 6 11-6 12-3 3 12-6 11-8 23-6 27 3 3 2 4-2 1s-25 12-47 32l-41 38 33-36c24-27 30-39 21-44-7-5-10-4-6 2 4 5-7 23-24 39s-27 34-24 43c4 11 3 11-9 2-12-10-14-8-9 11 3 17 2 19-5 9-8-11-11-10-16 6-3 10-18 24-34 31-26 11-26 11-2 7 14-3 19-2 12 1-6 3-9 11-6 16 5 7 2 8-5 4-8-5-26 7-48 31-19 21-30 31-24 21 9-11 9-18 1-23-6-4-10-3-9 2 4 17-14 43-25 36-6-4-6 0 2 9 10 13 10 18 1 24-8 4-9 3-5-4s2-12-3-12c-6 0-11 7-11 16s-5 12-12 8c-7-5-9-2-5 9 4 12 2 14-10 10-11-4-14-2-9 5 4 8 2 10-8 6-9-3-24 5-37 20-18 21-25 24-38 13-12-9-13-9-7 1 4 7 2 12-4 12s-8 5-4 13c5 7 2 7-10-2-15-12-17-12-14 0 2 9-5 14-19 13-13-1-20 3-17 7 3 5 0 9-6 9s-8 5-4 13c5 7 0 6-11-3-10-8-16-10-13-5 3 6 0 16-8 23-11 10-14 10-14 0 0-7-5-5-11 6-8 12-14 15-18 7-5-7-19-2-43 14-21 14-42 25-47 25-6 0-11 6-11 13 0 8-4 7-10-3-5-8-10-10-10-4s-6 11-12 12c-17 1-53 10-53 13 0 4-52 10-110 12-33 1-65 5-72 10-6 4-14 3-17-2zm572-206c-3-3-9 2-12 12-6 14-5 15 5 6 7-7 10-15 7-18zm-1348-39c0-2-7-7-16-10-8-3-12-2-9 4 6 10 25 14 25 6zm150-1200c0-3-4-8-10-11-5-3-10-1-10 4 0 6 5 11 10 11 6 0 10-2 10-4z"/><path d="m3500 3300c8-5 20-10 25-10 6 0 3 5-5 10s-19 10-25 10c-5 0-3-5 5-10z"/><path d="m1465 2201c-6-11 13-26 22-17 4 3 1 6-6 6s-9 5-6 10c3 6 4 10 1 10s-7-4-11-9z"/><path d="m1770 1867c0-16 21-47 33-47 8 0 9 3 1 8-6 4-16 16-22 27s-12 16-12 12z"/><path d="m9600 4208c0-4-7-5-15-1-9 3-24-2-35-12-10-9-25-15-32-12-7 2-26-5-42-16-27-19-29-20-23-3 6 16 5 17-8 6-9-7-13-20-10-29 5-13 4-13-6-4-9 9-18 9-31 2-11-6-26-8-34-5s-13 0-11-7c1-7-6-11-15-9-10 2-18-2-18-9 0-8-5-7-17 2-9 8-14 9-10 3 4-7 0-17-8-24-13-11-15-10-10 6 4 12 0 9-9-6-8-14-15-19-16-12 0 7-5 10-10 7-6-4-8-10-5-15 3-4-2-11-11-14-10-4-13-2-8 6 4 7 3 8-4 4s-12-14-12-22-5-14-11-14c-5 0-7 6-3 13 5 9 3 9-7-1-12-11-12-14 1-23 11-7 9-8-10-5-25 4-55-16-42-28 3-4-2-4-11 0-13 5-20 1-24-15s-9-19-18-11c-13 11-35-7-39-32-3-23-16-37-30-32-7 3-19-3-27-13-12-16-12-17 2-6 13 10 16 10 16-2 0-8-3-12-7-10-7 4-100-63-100-73 0-2 6 1 13 7 10 8 14 7 14-2 0-7-9-14-20-14-11-1-25-7-31-14-8-9-7-10 4-4 12 7 13 6 3-7-7-8-9-19-5-23 4-5-1-5-10-2-17 6-24-7-19-35 0-5-5-7-12-5-7 1-11-6-9-17 2-10-1-15-6-12s-16-2-23-11c-8-9-9-14-3-10 6 3 11 0 11-8 0-7-8-12-18-10s-18 1-17-3c3-14-25-61-33-56-13 8-11-10 3-24 7-7 8-12 2-12-15 0-10-173 5-178 6-2 9-8 5-13-3-5 3-9 13-9 15 0 16-2 3-10-13-9-13-10 0-11 8-1 19-1 24 0s3-5-4-14c-7-8-10-18-6-22 3-3 6-1 6 5 0 7 5 12 11 12 5 0 7-4 4-10-3-5-1-10 5-10s8-5 4-12-3-8 5-4c7 5 26-7 48-29 20-20 42-34 50-31s16-1 20-10c3-8 12-13 19-10s16 0 20-6c5-7 2-8-6-3-9 5-11 4-6-4 6-9 11-9 22 0 8 6 14 7 14 3 0-5 13-10 30-10 20-1 27 2 23 10-5 8-3 8 8 0 16-13 68-13 87-1 6 5 17 5 22 2 6-3 10-1 10 4 0 6 3 10 8 10 21-4 32 2 26 14-6 9-5 9 8-1 12-10 17-10 27 1 6 8 8 17 4 20-3 4 2 7 13 8 10 0 13 3 7 6-7 2-13 9-13 15s7 8 15 4c10-3 15 1 15 12 0 15 2 15 10 2 8-12 10-11 10 8 0 16 6 22 23 22 18 0 19 2 7 10-13 8-13 10 2 10 9 0 23 9 31 20s18 17 23 12c4-4 2 1-5 11-12 15-12 17 2 12 8-4 18-1 23 6 5 8 3 10-6 4s-11-4-6 4c5 7 14 10 22 7 7-3 16 0 20 6 4 7 3 8-4 4s-12-2-12 3c0 11 15 15 34 12 5-1 3 5-4 14-11 13-10 14 5 8 15-5 17-3 12 10-5 15-3 16 12 7 15-7 18-6 17 8 0 9 4 16 11 15 8-2 10 4 6 15-6 14-4 15 9 4s16-10 14 5c0 10 5 17 12 15 6-1 12 2 12 7 0 8 41 23 57 20 3 0 10 6 15 15 5 8 15 13 23 10 8-4 15-1 15 4 0 6 9 9 20 7s20 0 20 5 9 8 20 7 20-6 20-12c0-5 4-4 9 4 6 9 11 10 15 2 4-7 14-8 24-3 28 13 177 7 174-7-1-7 2-10 8-6 5 3 10 1 10-5s4-9 9-5c6 3 20-5 32-17 19-20 21-20 15-4-5 16-4 17 9 6 8-7 13-16 10-20s2-11 11-14c8-3 12-2 9 4-3 5 1 7 9 4 9-3 14-11 13-17s4-11 12-12c7 0 21-11 30-25 13-20 14-23 1-16-12 7-13 7-2-5 11-11 14-12 21-1s10 10 14-3c4-9 3-13-3-10-15 9-12-5 5-22 8-8 13-18 10-23s8-18 25-30c29-21 34-38 15-52-6-5-3-8 7-8 11 0 15-6 11-20-3-11 0-20 6-20s11-5 11-11c0-5-6-7-12-3-10 6-10 5-1-7 16-20 23-119 8-119-6 0-7-3 0-8 15-11 17-32 2-32-7 0-8-3-2-8 6-4 10-29 10-57 0-27-4-53-10-57-6-5-5-8 4-8 10 0 11-3 2-14-8-10-9-16-1-21 6-3 8-11 5-16-4-5-1-9 4-9 6 0 11-5 11-11 0-5-6-7-12-4-7 4-2-3 12-14s29-21 34-21 6-3 3-6c-4-4-13-1-22 6-13 11-14 10-9-4 6-15 18-20 38-17 5 1 6-6 2-15-5-12-2-15 9-10 9 3 14 2 11-2-2-4-1-14 5-22 7-12 9-11 10 5 0 15 3 13 11-9 8-21 13-25 19-15 7 11 9 10 9-4 0-10 5-15 10-12 6 3 10-1 10-10s5-13 10-10c6 4 8 12 4 18-3 7 0 5 8-3 10-12 34-16 105-15 51 0 93 3 93 6s13 5 30 4c16-1 27 2 24 7-10 15 7 30 21 18 10-8 17-6 29 11 8 12 13 25 11 29s8 5 23 4c15-2 21-1 15 2-7 3-13 11-13 17 0 5 3 8 6 4 4-3 14 2 23 11 10 11 12 12 6 2-9-13-8-13 8-1 10 8 16 20 13 28-3 7-1 13 5 13s7 6 3 13c-5 8-2 7 9-2 15-12 17-12 11 3-4 10-1 16 7 16s5 6-7 16c-10 8-14 13-8 10 13-7 27 21 18 35-3 5 0 9 7 9 10 0 10 3 1 12s-8 16 5 30c12 14 14 21 5 30-8 8-8 17-1 30s7 23 0 31c-5 7-6 18-2 25 9 14 7 104-3 120-3 6-2 13 4 17s7 12 3 18c-10 15-14 35-15 70-1 15-6 27-12 27-7 0-8 3-1 8 15 10 18 35 4 26-9-5-10-1-7 14 4 14 2 20-5 15-6-4-8 0-4 10 3 9 2 19-3 22-6 4-10 15-10 26 0 10-5 19-11 19-8 0-9 4 0 13 13 17 4 28-17 20-10-5-13-3-7 6 4 8-2 25-15 43-13 17-18 28-11 24 6-4 11-2 11 3 0 6-4 11-10 11-5 0-9 6-7 13 1 6-4 11-12 9-11-2-12 0-3 11 10 11 9 17-1 26-8 6-18 7-22 3-5-4-5-2-2 4 8 14-14 64-28 64-5 0-4 4 4 9 11 7 9 10-8 16-11 3-21 11-21 16 0 6 6 7 13 3 8-5 8-2-2 9-15 18-26 23-16 7 3-5 2-10-3-10-6 0-13 7-16 16-3 8-10 12-16 9-6-4-7 1-3 11 5 13 3 15-7 9s-12-4-7 8c4 12 2 14-10 10-12-5-14-3-8 7s4 12-10 6c-16-6-16-4-4 11 8 9 9 14 3 10-11-7-29 19-25 36 1 5-3 6-9 2-8-5-7-12 2-23 12-15 11-16-5-3-10 8-16 20-13 27 3 8 0 11-10 7-9-3-14 2-14 15 0 12-4 24-10 27s-8-2-5-12 0-8-6 5c-7 12-18 22-26 22-10 0-13 7-9 23 3 12 3 16 0 10-3-7-10-13-15-13-6 0-7 5-4 10 3 6-1 10-9 10-19 0-21 16-3 24 6 3 2 3-10 0-14-3-23-1-23 6 0 6-5 8-10 5-6-3-13 1-16 9-3 9-10 16-16 16-5 0-7-4-4-8 3-5-1-9-9-9s-17 9-21 19c-3 10-10 16-15 13-5-4-15-3-21 2-7 4-15 8-18 8-36 6-69 19-64 26 3 5-2 9-11 9s-23 6-31 14-24 13-36 11c-12-3-25 1-29 7-9 13-509 19-509 6zm-538-270c-7-7-12-8-12-2 0 14 12 26 19 19 2-3-1-11-7-17zm-92-91c0-2-10-12-22-23l-23-19 19 23c18 21 26 27 26 19zm265-636c3-5 2-12-3-15s-9 1-9 9c0 17 3 19 12 6z"/><path d="m9013 3915c0-8 4-12 9-9s6 10 3 15c-9 13-12 11-12-6z"/><path d="m10116 3472c-3-5 1-9 9-9s12 4 9 9c-3 4-7 8-9 8s-6-4-9-8z"/><path d="m10223 3325c0-8 4-12 9-9s6 10 3 15c-9 13-12 11-12-6z"/><path d="m8830 3232c0-4 10-13 23-21 22-14 22-14 3 8-20 22-26 25-26 13z"/><path d="m10770 2759c0-5 5-7 10-4 6 3 10 8 10 11 0 2-4 4-10 4-5 0-10-5-10-11z"/><path d="m7186 5013c-6-14-5-15 5-6 7 7 10 15 7 18s-9-2-12-12z"/><path d="m12935 4881c-3-5-2-12 3-15s9 1 9 9c0 17-3 19-12 6z"/><path d="m6165 3670c-3-5-1-10 4-10 6 0 11 5 11 10 0 6-2 10-4 10-3 0-8-4-11-10z"/><path d="m747 2049c4-13 8-18 11-10 2 7-1 18-6 23-8 8-9 4-5-13z"/><path d="m7355 1960c3-5 8-10 11-10 2 0 4 5 4 10 0 6-5 10-11 10-5 0-7-4-4-10z"/><path d="m813 1945c0-8 4-12 9-9s6 10 3 15c-9 13-12 11-12-6z"/><path d="m5410 1639c0-5 5-7 10-4 6 3 10 8 10 11 0 2-4 4-10 4-5 0-10-5-10-11z"/><path d="m6515 1521c-3-5-1-13 5-16 15-9-7-35-29-35-9 0-23-5-31-11-13-9-12-10 2-5 10 3 20 1 23-4 4-6-3-10-15-10s-18-4-15-10c3-5-2-10-12-10-11 0-14-3-7-8 6-4 10-19 10-34-1-19 4-28 17-32 11-2 16-9 12-15-3-6 2-14 12-18s27-16 38-26c11-11 15-17 8-13-6 3-15 1-19-5-4-8-3-9 4-5s12 2 12-4 4-9 9-5c5 3 16-1 24-9 11-11 17-12 26-3 8 8 11 8 11-1 0-6 7-9 15-6 8 4 15 2 15-4s10-8 22-4c15 4 19 2 13-7-6-10-3-11 13-2 14 7 23 8 27 1 3-5 11-10 16-10 6 0 7 5 3 11-3 6 5 4 18-5 14-9 28-13 31-9 4 3 7 2 7-4 0-11 36-11 46 0 4 4 16 0 26-10 12-10 18-12 18-4 0 7 5 9 10 6 6-4 8-9 6-13s7-8 20-8c15-1 21 2 17 10-4 6 1 5 10-2 9-8 21-11 27-7s10 3 9-2c-3-20 2-27 11-13 6 10 10 11 10 3 0-7 10-13 21-13 19 0 20-2 8-17-8-9-9-14-3-10 7 4 15-1 18-10 4-10 4-14 0-10-12 11-43-23-37-41 5-11 3-13-7-7s-12 4-6-10c5-15 4-16-8-6-11 9-14 8-12-6 1-12-6-18-21-17-17 0-20-3-13-16 8-14 5-17-16-14-14 1-23 0-20-3 3-4-2-15-11-26-11-12-12-17-4-12 10 6 12 4 6-4-4-7-16-11-26-8-15 4-17 2-9-12 7-15 4-17-23-17-22 1-34-5-42-19-5-11-19-20-30-21-11 0-19-5-17-12 2-11-10-16-30-13-4 0-5-5-2-12 3-8-2-14-11-14-8 0-15 5-15 11s-5 3-11-7c-6-9-15-15-20-11-5 3-8 0-7-7 2-6-3-14-11-17-8-2-11 0-7 6 3 6 1 14-6 18s-10 4-6-1c4-4 0-14-10-22-11-10-12-12-2-8 8 4 6-1-5-10s-28-14-37-11c-10 2-18-1-18-7s-3-7-7-4c-3 4-16-1-27-10-20-17-20-17-7 0 14 18 12 21-13 11-9-3-14-9-12-13 3-4-10-6-27-5-18 1-38-2-44-8-9-7-13-7-13 1 0 7-5 9-10 6-6-4-8-10-5-14 2-5-7-6-22-3-20 4-24 2-18-9 7-11 6-12-6-3-19 14-61 16-53 2 5-7 2-8-7-2-21 13-160 14-152 0 5-8 3-8-8 0-19 14-60 16-75 3-8-6-14-7-18 0-4 5-20 9-36 9-17-1-27-5-23-11s1-7-8-1c-8 5-43 10-79 10-86 3-120 7-120 15 0 4-22 7-49 5-40-1-48 1-43 14s3 13-11 1c-11-9-17-10-17-2 0 6-3 10-7 10-22-4-33 2-27 14 6 9 4 9-8-1-14-11-19-10-31 9-10 13-22 19-32 15-9-3-18 1-22 10-5 13-7 13-14 2-6-10-11-10-21 0-6 6-20 12-30 12s-18 5-18 11c0 5-5 7-11 4-5-4-18 0-27 8-9 9-30 17-47 19-16 1-28 6-25 10 8 11-33 36-49 30-10-4-12-1-6 8 6 10 4 12-8 7-10-3-17-2-17 4s-4 7-10 4c-5-3-10-1-10 6 0 9-3 9-14 0-10-8-15-9-18-1-2 6-17 12-33 14-17 2-29 8-28 12 1 5-23 9-53 9s-54-3-54-6c0-4-16-3-35 1-22 5-35 4-35-2s-6-8-14-5c-13 5-25-10-32-40-1-7 3-13 9-13 7 0 5-5-3-10s-10-10-4-10c7 0 15-7 18-16 3-8 2-12-4-9s-10 1-10-4c0-6 7-11 15-11s15-9 15-20 5-20 11-20c5 0 7 5 3 12s-3 8 4 4c6-4 8-14 5-24-6-15-5-15 10-3s17 12 11-4c-5-13-4-16 4-11 7 4 12 2 12-4s5-8 12-4c7 5 8 3 2-7-12-20-14-40-3-33 5 3 7 10 4 15s1 6 10 3c13-5 13-9 3-22-11-14-10-14 7-5 15 9 22 8 33-5 9-12 11-12 6-2-7 12-5 13 8 3 8-7 18-10 22-6 10 11 25-17 21-40-3-15-1-16 9-8s16 8 25-2c6-8 8-17 5-20-4-4 3-5 15-2 11 2 21 0 21-6 0-5-5-9-12-9-6 0-8-3-5-6 4-4 13-1 22 6 11 9 15 9 15 1 0-7 5-9 10-6 6 3 10 0 10-7 0-9 3-9 10 2 9 13 10 13 11 0 1-8 1-19 0-23s4-7 11-6c24 3 39-1 35-9-3-4 9-8 26-8 17-1 33-6 35-13s9-8 22-1c16 9 18 7 15-11-3-17-1-19 10-9 10 8 15 8 21-1 5-8 3-9-6-4-9 6-11 4-6-4 5-7 14-10 22-7s14 1 14-5 9-8 20-4c16 5 20 2 20-17 0-13 4-18 8-13 10 14 32 17 32 4 0-6 7-8 17-5 9 4 19 2 23-4s23-11 43-12 34-5 31-10c-3-4 5-8 17-8s19-3 15-7c-9-9 46-32 59-25 16 10 45 9 45-1 0-5 7-7 15-4 8 4 17 2 20-4 4-5 22-8 41-6 19 3 37 1 39-3 3-5 17-7 31-5 14 1 32-4 40-12 8-9 14-10 14-3s6 8 18 1c13-7 23-6 30 1 9 9 12 9 12-1 0-11 3-11 15-1s15 10 15-1c0-12 2-12 9 0 5 7 11 9 14 4 7-11 37-11 55 1 7 4 12 2 12-5 0-8 4-8 15 1 12 10 15 10 15 0s3-10 15 0c8 7 15 8 15 3 0-11 29-11 47 0 6 4 15 3 18-3 5-8 11-8 20 0 10 8 15 8 20 0s10-8 20 0 15 8 20 0 11-7 22 1c12 10 16 10 24-2 5-8 9-9 9-2 0 6 11 10 26 8 18-2 24 2 20 11-6 15 15 14 27-1 4-7 10-6 15 2 4 6 22 10 39 8 18-1 30 1 28 6-3 4-1 10 5 14 5 3 10 0 10-7 0-8 3-9 8-3 4 6 17 10 30 9 12-1 22 3 22 9 0 5 8 3 17-4 11-10 14-10 9-2-4 8-2 13 4 13s8 5 4 11c-4 7 1 7 16-1s20-8 16-1c-4 6-2 11 3 11 6 0 11 5 11 11 0 5-4 7-10 4-5-3-10-1-10 4 0 14 13 14 27 0 7-7 13-7 17 0 4 5 13 8 21 4 8-3 15 0 15 7 0 9 4 9 17-1 10-8 14-9 10-2-4 6-3 14 3 18 5 3 10 1 10-5s5-8 10-5c6 4 8 10 5 15s6 7 21 4c14-3 23-1 20 5-3 5 1 12 10 15 8 3 12 10 9 16-4 6 1 7 10 3 14-5 14-8 3-15-10-8-10-9 2-5 8 2 15 13 14 24-1 16 4 19 20 16 17-4 18-3 6 6-13 9-12 11 3 11 10 0 15 4 12 10-3 5 0 7 8 4s18 0 22 5c3 6 10 9 15 6s12 0 16 6c4 7 3 9-4 5-6-3-13-2-17 4-3 5 1 10 10 10 10 0 13 5 9 13-6 9-4 9 8-1 13-10 18-8 32 12 9 14 16 30 16 37 0 6 7 8 16 5 15-6 15-4 3 11-7 10-10 15-5 11 11-9 35 14 28 27-3 6 3 3 13-5s16-10 12-3 1 14 12 18c13 4 18 12 14 28-3 13-1 17 4 10 6-8 13-8 26 2 10 7 14 16 8 19-5 3-12 1-14-4-3-6-4-5-3 2 2 7 9 13 17 13 8 1 13 7 11 14-2 8 3 11 13 8 9-4 15-1 15 8s-6 12-17 8c-14-5-13-3 3 13 10 11 21 16 22 12 7-16 23-8 20 10-2 12 3 16 16 14s16 1 10 10c-6 11-5 11 8 0 9-7 20-11 24-10 10 3 14-5 14-24 0-9-4-8-10 2-7 10-10 11-10 2 0-7 7-15 15-19 9-3 15-13 14-22-3-30 1-34 18-20 9 8 14 9 10 2-4-6-1-14 5-16 10-4 10-6 1-6-7-1-13-5-13-11 0-5 8-6 18-3 14 6 15 4 4-9-10-13-10-18-1-24 8-5 9-3 4 6s-4 11 4 6c6-4 9-12 5-17-3-5 0-16 6-24 10-11 10-15 1-15-7 0-9-5-6-10 4-6 11-7 17-4 7 5 9-3 5-22-3-16-4-23-1-16 9 19 27 14 22-6-4-15 0-18 18-16s22-2 19-17c-5-26 19-34 92-33 77 1 104 10 96 32-6 15-5 15 10 3s17-12 11 4c-4 10-3 16 2 13 5-4 10 11 10 33 1 23-3 36-9 32s-7-1-1 8c10 16 13 159 3 159-4 0-9 9-12 20-3 13-1 18 5 13 7-4 8-1 2 8-5 8-10 23-10 34-3 41-4 46-12 41-5-3-8 5-7 17s-5 28-14 35c-14 12-14 13 3 8 15-5 17-4 8 7-7 8-8 18-4 22 4 5 2 5-4 2-7-4-15 0-18 9-4 10-2 13 7 8 6-4 3 2-7 14-13 15-15 22-6 22 7 0 1 12-14 26-14 15-26 31-26 37s6 3 13-8c11-14 16-15 22-5 5 8 4 11-2 7s-14 0-17 9c-5 13-9 14-21 4-15-13-16-11-18 28-1 9-8 23-17 30-10 9-11 11-1 6s12-3 7 5c-5 7-14 10-22 7-9-3-11 0-7 11 5 12 2 14-8 9-8-4-6-1 4 7 16 13 16 15 2 21-9 3-13 2-10-4 9-15-4-12-21 4-12 13-12 15 4 20 9 3 5 4-10 2s-25 1-22 5c3 5 0 9-5 9-6 0-11 4-11 10 0 5 8 7 18 4 13-5 14-4 3 4-8 6-19 8-26 6-6-3-18 3-26 13-13 16-12 17 4 4 11-9 17-10 17-2 0 11-13 15-37 12-7-1-13 3-13 9 0 7-8 9-21 5-15-5-19-4-15 4 4 7 0 11-11 11s-24 5-31 12c-9 9-12 9-12-1 0-7-5-9-10-6-6 4-8 11-5 16 4 5-4 5-19 0-19-8-26-6-30 5-3 8-10 13-15 10s-12 1-15 10c-4 10-14 14-26 11-11-3-23-1-26 4s-10 7-15 3c-5-3-17 0-26 8-12 9-15 9-9 1 4-7 3-13-3-13-5 0-15 8-20 18-7 11-10 13-11 3 0-10-3-11-14-2s-15 9-19-1-6-10-6 1c-1 11-4 11-16 1-11-9-15-9-15-1s-5 9-19 2c-10-6-21-7-25-4-10 11-46 11-46 0 0-5-6-4-14 2-11 9-15 9-19-1s-6-10-6 1c-1 11-4 11-16 1-11-9-15-9-15-1s-5 9-19 2c-10-6-21-7-25-4-10 11-46 11-46 0 0-5-6-4-14 2-11 9-15 9-19-1s-6-10-6 1c-1 11-4 11-16 1-11-9-15-9-15-1s-5 9-19 2c-10-6-21-7-25-4-10 11-46 11-46 0 0-5-7-4-15 3-12 10-15 10-15-1 0-12-2-12-9 0-6 9-11 10-15 2-4-6-14-11-22-11s-12 5-9 10c3 6 4 10 1 10s-7-4-11-9zm520-441c4-6-1-7-11-3-13 5-15 3-9-7 5-9 4-11-4-6-6 4-9 12-6 17 8 12 22 12 30-1zm-109-112c4-7 3-8-4-4s-12 2-12-5-3-10-6-6c-6 5 3 27 11 27 2 0 7-5 11-12zm-1996-42c0-2-7-7-16-10-8-3-12-2-9 4 6 10 25 14 25 6zm1872-48c-7-7-12-8-12-2 0 14 12 26 19 19 2-3-1-11-7-17zm-1517 2c3-5 1-10-4-10-6 0-11 5-11 10 0 6 2 10 4 10 3 0 8-4 11-10zm1885-120c0-5-5-10-11-10-5 0-7 5-4 10 3 6 8 10 11 10 2 0 4-4 4-10zm-102-105c-6-14-13-23-15-21-5 5 15 46 22 46 3 0-1-11-7-25zm462-45c0-5-5-10-11-10-5 0-7 5-4 10 3 6 8 10 11 10 2 0 4-4 4-10z"/><path d="m7716 1512c-3-5 1-9 9-9s12 4 9 9c-3 4-7 8-9 8s-6-4-9-8z"/><path d="m6500 1489c0-5 5-7 10-4 6 3 10 8 10 11 0 2-4 4-10 4-5 0-10-5-10-11z"/><path d="m11816 1492c-3-5 1-9 9-9s12 4 9 9c-3 4-7 8-9 8s-6-4-9-8z"/><path d="m1206 1467c3-10 9-15 12-12s0 11-7 18c-10 9-11 8-5-6z"/><path d="m1280 1401c0-10 29-36 34-30 1 2-6 12-16 22-10 9-18 13-18 8z"/><path d="m6488 1293c6-2 9-10 6-15-4-7-2-8 5-4 13 9 5 26-12 25-9 0-8-2 1-6z"/><path d="m3956 887c-14-10-15-14-4-14 7 0 19 6 26 14 7 7 9 13 4 13-4 0-16-6-26-13z"/><path d="m5090 680c0-5 5-10 11-10 5 0 7 5 4 10-3 6-8 10-11 10-2 0-4-4-4-10z"/></g></svg>